<svg width="15" height="17" xmlns="http://www.w3.org/2000/svg"><g stroke="#9F9F9F" stroke-width="1.4" fill="none" fill-rule="evenodd" stroke-linecap="round" stroke-linejoin="round"><path d="M11.8186 9v2.5c0 2.486-2.015 4.5-4.5 4.5s-4.5-2.014-4.5-4.5V9"/><path d="M13.635 4.1582c0-1.309-1.062-2.369-2.369-2.369-.516.001-1.017.173-1.424.488-1.024-1.393-2.984-1.693-4.377-.669-.256.188-.481.413-.669.669-.409-.315-.909-.487-1.424-.488-1.306-.004-2.368 1.052-2.372 2.358-.003 1.098.75 2.054 1.819 2.308v2.545h9v-2.545c1.063-.254 1.814-1.204 1.816-2.297zM5.8186 9V7M8.8186 9V7"/></g></svg>
