<svg id="Layer_1" data-name="Layer 1" xmlns="http://www.w3.org/2000/svg" viewBox="0 0 16.19 15.91"><title>arabian_food</title><path d="M1390.57,146.47l0,0h0a2,2,0,0,0-.42-0.27,2.51,2.51,0,0,0-.5-0.79,2.49,2.49,0,0,0-1.71-3,18.51,18.51,0,0,0-4.69-2.4,2.67,2.67,0,0,0-1.77.69,2.49,2.49,0,0,0-3,1.71,2.49,2.49,0,0,0-1.71,3,2.5,2.5,0,0,0-.51.8,2,2,0,0,0-.41.26h0v0l0,0a2,2,0,0,0-.69,1.45,8.1,8.1,0,0,0,16.19,0A2,2,0,0,0,1390.57,146.47Zm-2.28-.5H1378a0.66,0.66,0,0,0,.08-0.69,1.17,1.17,0,0,1,1-1.68,0.66,0.66,0,0,0,.6-0.6,1.18,1.18,0,0,1,.58-0.93,1.17,1.17,0,0,1,.58-0.16,1.18,1.18,0,0,1,.51.12,0.66,0.66,0,0,0,.82-0.22,1.29,1.29,0,0,1,1-.51,1.18,1.18,0,0,1,1,.51,0.66,0.66,0,0,0,.82.22,1.17,1.17,0,0,1,1.68,1,0.66,0.66,0,0,0,.6.6,1.17,1.17,0,0,1,1,1.68A0.66,0.66,0,0,0,1388.29,146Zm-5.14,8.63a6.82,6.82,0,0,1-6.79-6.67,0.68,0.68,0,0,1,.62-0.64h12.29a0.68,0.68,0,0,1,.67.62A6.82,6.82,0,0,1,1383.15,154.6Z" transform="translate(-1375.05 -139.99)" fill="#000100"/><circle cx="4.96" cy="4.85" r="0.71" fill="#000100"/><circle cx="10.24" cy="3.51" r="0.71" fill="#000100"/></svg>