<svg id="Layer_1" data-name="Layer 1" xmlns="http://www.w3.org/2000/svg" viewBox="0 0 16.69 16.36"><title>asian_food</title><path d="M1548.08,149.22l-2.16-4.31a0.52,0.52,0,0,0-.7-0.23h-1.79l3.65-4.05a0.39,0.39,0,0,0,0-.55l-0.39-.35a0.39,0.39,0,0,0-.55,0l-4.44,4.93h0l2-4.59a0.39,0.39,0,0,0-.2-0.52l-0.48-.21a0.39,0.39,0,0,0-.52.2l-2.27,5.12h-5.89a0.52,0.52,0,0,0-.7.23l-2.16,4.31a0.52,0.52,0,0,0,.23.7l0.28,0.14a0.52,0.52,0,0,0,.7-0.23l1.71-3.42,0.81,7.33a2,2,0,0,0,2,2h5.21a1.94,1.94,0,0,0,2-1.88l0.81-7.4,1.71,3.41a0.52,0.52,0,0,0,.7.23l0.28-.14A0.52,0.52,0,0,0,1548.08,149.22Zm-5,4.52a0.65,0.65,0,0,1-.65.65h-5.21a0.68,0.68,0,0,1-.66-0.72l-0.84-7.68h8.22Z" transform="translate(-1531.44 -139.34)" fill="#000100"/></svg>