<svg id="Layer_1" data-name="Layer 1" xmlns="http://www.w3.org/2000/svg" viewBox="0 0 17.64 10.79"><title>bakery_food</title><path d="M1546.59,76.49a1.38,1.38,0,0,0-.78-1.22l-2.42-1.18V74a0.66,0.66,0,0,0-.35-0.69,7.89,7.89,0,0,0-6.53,0,0.66,0.66,0,0,0-.35.69v0l-2.42,1.18a1.38,1.38,0,0,0-.78,1.22,6.46,6.46,0,0,0-2,5.49,1.51,1.51,0,0,0,1.21,1.42,1.54,1.54,0,0,0,1.69-.82,3.2,3.2,0,0,1,.81-1.08l0.11,0.06a1.4,1.4,0,0,0,1.14,0l1.45-.59a0.66,0.66,0,0,0,.55.29h3.73a0.66,0.66,0,0,0,.55-0.29l1.45,0.59a1.41,1.41,0,0,0,1.14,0l0.11-.06a3.19,3.19,0,0,1,.8,1.08,1.52,1.52,0,0,0,1.37.85,1.62,1.62,0,0,0,.33,0A1.51,1.51,0,0,0,1548.6,82,6.46,6.46,0,0,0,1546.59,76.49ZM1534,80.39A4.33,4.33,0,0,0,1532.7,82a0.2,0.2,0,0,1-.24.12,0.19,0.19,0,0,1-.17-0.2,5.79,5.79,0,0,1,1-3.92Zm3.12-.68-1.67.68h-0.05a0.06,0.06,0,0,1,0,0l-1-3.81a0.07,0.07,0,0,1,0-.08l2.07-1Zm4.91-5.36L1541.09,80h-2.61l-0.92-5.64A6.67,6.67,0,0,1,1542,74.35Zm3.26,2.18-1,3.81a0.06,0.06,0,0,1,0,0h-0.05l-1.67-.68,0.69-4.25,2.07,1A0.07,0.07,0,0,1,1545.27,76.53Zm2,5.38a0.19,0.19,0,0,1-.17.2,0.2,0.2,0,0,1-.24-0.12,4.33,4.33,0,0,0-1.29-1.61l0.65-2.39A5.79,5.79,0,0,1,1547.28,81.92Z" transform="translate(-1530.97 -72.65)" fill="#000100"/></svg>