<svg width="14" height="17" xmlns="http://www.w3.org/2000/svg" xmlns:xlink="http://www.w3.org/1999/xlink"><defs><path d="M0 .0013846c0 .762923.6258 1.383923 1.3993 1.383923S2.8.7643077 2.8.0013847H0z" id="a"/><path d="M-5.6.0013846c0 .762923.6258 1.383923 1.3993 1.383923S-2.8.7643077-2.8.0013847h-2.8z" id="b"/></defs><g fill="none" fill-rule="evenodd"><path d="M2.0594 5.0804312h9.9057c.4865 0 .8645.4202308.8064.8986154l-1.0738 8.9051539c-.0287.5753077-.4963 1.0280769-1.0647 1.0287692H3.3929c-.5691.0006923-1.0381-.4520769-1.0668-1.0287692L1.253 5.9790466c-.0574-.4783846.3199-.8986154.8064-.8986154z" stroke="#fff" stroke-width="1.4" stroke-linecap="round" stroke-linejoin="round"/><path d="M4.2742 5.0804312V3.387739c0-1.2018461 1.2257-2.175923 2.7384-2.175923 1.512 0 2.7377.9740769 2.7377 2.175923v1.6926923" stroke="#fff" stroke-width="1.4"/><path d="M3.5 7.4321312h7" stroke="#fff" stroke-width="1.4" stroke-linecap="round" stroke-linejoin="round"/><g transform="translate(8.4 4.846154)" fill="#fff"><use xlink:href="#a"/><use xlink:href="#b"/></g></g></svg>
