<?xml version="1.0" encoding="UTF-8"?>
<svg width="11px" height="15px" viewBox="0 0 11 15" version="1.1" xmlns="http://www.w3.org/2000/svg" xmlns:xlink="http://www.w3.org/1999/xlink">
    <!-- Generator: Sketch 51.2 (57519) - http://www.bohemiancoding.com/sketch -->
    <title>icon/beverages</title>
    <desc>Created with Sketch.</desc>
    <defs></defs>
    <g id="icon/beverages" stroke="none" stroke-width="1" fill="none" fill-rule="evenodd" stroke-linecap="round" stroke-linejoin="round">
        <path d="M8.53972024,15 L5.27372024,15 C4.77591186,14.9999952 4.35391122,14.6338351 4.28372024,14.141 L3.40672024,8 L10.4067202,8 L9.52972024,14.141 C9.45952926,14.6338351 9.03752861,14.9999952 8.53972024,15 Z" id="Shape" stroke="#434340" stroke-width="1.4"></path>
        <path d="M5.44372024,5.5 C5.06372024,3.963 4.40672024,2.638 4.40672024,2 L4.40672024,0 L1.40672024,0 L1.40672024,2 C1.40672024,2.9 0.106720238,5.155 0.106720238,7.45 C0.106720238,9.745 0.423720238,10.543 0.423720238,11.641 C0.326138617,12.4150196 0.184913675,13.1829094 0.000720238113,13.941 C-0.0191667178,14.4760824 0.375008473,14.9368236 0.906720238,15 L1.90672024,15" id="Shape" stroke="#434340" stroke-width="1.4"></path>
    </g>
</svg>