<?xml version="1.0" encoding="UTF-8"?>
<svg width="18px" height="9px" viewBox="0 0 26 14" version="1.1" xmlns="http://www.w3.org/2000/svg" xmlns:xlink="http://www.w3.org/1999/xlink">
    <!-- Generator: sketchtool 52.3 (67297) - http://www.bohemiancoding.com/sketch -->
    <title>E4ED2778-701E-45F9-8A39-F77BDE6942E2</title>
    <desc>Created with sketchtool.</desc>
    <g id="Tracking" stroke="none" stroke-width="1" fill="none" fill-rule="evenodd">
        <g id="Tracking-A-Thank-you-(6-steps)" transform="translate(-755.000000, -944.000000)">
            <g id="map" transform="translate(328.000000, 911.000000)">
                <g id="Map">
                    <g id="driver-icon" transform="translate(420.000000, 21.000000)">
                        <g id="icon/car-2" transform="translate(20.000000, 19.000000) scale(-1, 1) translate(-20.000000, -19.000000) translate(8.000000, 13.000000)">
                            <rect id="Background" x="0" y="0" width="24" height="12"></rect>
                            <path d="M7.3220339,9.74060084 C7.3220339,10.9884502 6.29761017,12.0000151 5.03389831,12.0000151 C3.77018644,12.0000151 2.74576271,10.9884502 2.74576271,9.74060084 C2.74576271,8.49270126 3.77018644,7.48118661 5.03389831,7.48118661 C6.29761017,7.48118661 7.3220339,8.49270126 7.3220339,9.74060084 Z" id="Stroke-1" stroke="#434340" stroke-width="1.4"></path>
                            <path d="M21.3220373,9.74060084 C21.3220373,10.9884502 20.2976136,12.0000151 19.0339017,12.0000151 C17.770139,12.0000151 16.7457661,10.9884502 16.7457661,9.74060084 C16.7457661,8.49270126 17.770139,7.48118661 19.0339017,7.48118661 C20.2976136,7.48118661 21.3220373,8.49270126 21.3220373,9.74060084 Z" id="Stroke-3" stroke="#434340" stroke-width="1.4"></path>
                            <path d="M7.25422881,9.98305272 L16.7457712,9.98305272" id="Stroke-5" stroke="#434340" stroke-width="1.4"></path>
                            <path d="M2.71184746,9.99164686 L1.46074576,9.99164686 C0.654,9.99164686 0,9.34585607 0,8.54918661 L0,6.44707782 C0,5.79360502 0.444915254,5.22177238 1.08437288,5.05337071 L4.65025424,4.11440837 C5.265,3.95253389 5.81720339,3.61397322 6.23679661,3.14165523 L8.6109661,0.469069456 C8.84745763,0.202860251 9.18864407,0.0502242678 9.54727119,0.0502242678 L16.1951695,0.0502242678 C17.3485424,0.0502242678 18.4304237,0.602123849 19.0977458,1.53104435 L20.6779322,3.73050879 C20.7895424,3.88590628 20.9348136,4.01479331 21.1032712,4.10773054 L23.392322,5.37159665 C23.7675254,5.57875983 24,5.97004017 24,6.394559 L24,8.5703749 C24,9.33681841 23.3707627,9.95815732 22.5946271,9.95815732 L21.3220169,9.95815732" id="Stroke-7" stroke="#434340" stroke-width="1.4"></path>
                            <path d="M7.55361801,4.14205021 L16.2858744,4.14205021" id="Path-6" stroke="#434340" stroke-width="1.4" stroke-linecap="round" stroke-linejoin="round" fill-rule="nonzero"></path>
                        </g>
                    </g>
                </g>
            </g>
        </g>
    </g>
</svg>