<?xml version="1.0" encoding="utf-8"?>
<!-- Generator: Adobe Illustrator 22.1.0, SVG Export Plug-In . SVG Version: 6.00 Build 0)  -->
<svg version="1.1" id="Layer_1" xmlns="http://www.w3.org/2000/svg" xmlns:xlink="http://www.w3.org/1999/xlink" x="0px" y="0px"
	 viewBox="0 0 30 26.5" style="enable-background:new 0 0 30 26.5;" xml:space="preserve">
<style type="text/css">
	.st0{filter:url(#Adobe_OpacityMaskFilter);}
	.st1{fill:#FFFFFF;}
	.st2{mask:url(#mask-2_1_);fill:#434340;}
	.st3{filter:url(#Adobe_OpacityMaskFilter_1_);}
	.st4{mask:url(#mask-4_1_);fill:#434340;}
</style>
<title>icon/cash</title>
<desc>Created with Sketch.</desc>
<g id="New-Checkout">
	<g id="Checkout---one-page" transform="translate(-309.000000, -1184.000000)">
		<g id="Payment-Options" transform="translate(122.000000, 935.000000)">
			<g id="Cash" transform="translate(205.000000, 283.000000)">
				<g id="icon_x2F_cash" transform="translate(82.000000, 66.000000)">
					<g id="Group-7">
						<g id="Group-3" transform="translate(14.000000, 9.000000)">
							<g id="Clip-2">
							</g>
							<defs>
								<filter id="Adobe_OpacityMaskFilter" filterUnits="userSpaceOnUse" x="-102" y="-101.9" width="14" height="14">
									<feColorMatrix  type="matrix" values="1 0 0 0 0  0 1 0 0 0  0 0 1 0 0  0 0 0 1 0"/>
								</filter>
							</defs>
							<mask maskUnits="userSpaceOnUse" x="-102" y="-101.9" width="14" height="14" id="mask-2_1_">
								<g class="st0">
									<path id="path-1_1_" class="st1" d="M-96.4-96.3c-0.8,0.8-0.8,2,0,2.8c0.8,0.8,2,0.8,2.8,0s0.8-2,0-2.8
										c-0.4-0.4-0.9-0.6-1.4-0.6C-95.5-96.9-96-96.7-96.4-96.3z"/>
								</g>
							</mask>
							<polygon id="Fill-1" class="st2" points="-102,-87.9 -88,-87.9 -88,-101.9 -102,-101.9 							"/>
						</g>
						<g id="Group-6">
							<g id="Clip-5">
							</g>
							<defs>
								<filter id="Adobe_OpacityMaskFilter_1_" filterUnits="userSpaceOnUse" x="-102" y="-101.9" width="34" height="30">
									<feColorMatrix  type="matrix" values="1 0 0 0 0  0 1 0 0 0  0 0 1 0 0  0 0 0 1 0"/>
								</filter>
							</defs>
							<mask maskUnits="userSpaceOnUse" x="-102" y="-101.9" width="34" height="30" id="mask-4_1_">
								<g class="st3">
									<path id="path-3_1_" class="st1" d="M-79.6-96.7l-6.7,4.8h3.4l3.6-2.6l1.5,2.6H-82v2h7v8h-12v-2h-2v3c0,0.6,0.4,1,1,1h6.9
										l-0.2,0.4c-0.2,0.3-0.5,0.6-0.9,0.6h-6.4l-2.4-2.4v-5.2l2.4-2.4h3.6v1c0,0.6-0.4,1-1,1h-2v2h2c1.7,0,3-1.3,3-3v-2
										c0-0.6-0.4-1-1-1h-5c-0.3,0-0.5,0.1-0.7,0.3l-1.8,1.8c-0.1-0.1-0.3-0.1-0.5-0.1h-4c-0.6,0-1,0.4-1,1v8c0,0.6,0.4,1,1,1h4
										c0.2,0,0.3-0.1,0.5-0.1l1.8,1.8c0.2,0.2,0.4,0.3,0.7,0.3h6.8c1.1,0,2.2-0.6,2.7-1.7l0.7-1.3h4.9c0.6,0,1-0.4,1-1v-10
										c0-0.6-0.4-1-1-1h-1.4l-2.7-4.5c-0.1-0.2-0.4-0.4-0.7-0.5c-0.1,0-0.1,0-0.2,0C-79.2-96.9-79.4-96.9-79.6-96.7z M-95-80.9h2
										v-6h-2V-80.9z"/>
								</g>
							</mask>
							<polygon id="Fill-4" class="st4" points="-102,-71.9 -68,-71.9 -68,-101.9 -102,-101.9 							"/>
						</g>
					</g>
				</g>
			</g>
		</g>
	</g>
</g>
</svg>
