<?xml version="1.0" encoding="utf-8"?>
<!-- Generator: Adobe Illustrator 22.1.0, SVG Export Plug-In . SVG Version: 6.00 Build 0)  -->
<svg version="1.1" id="Layer_1" xmlns="http://www.w3.org/2000/svg" xmlns:xlink="http://www.w3.org/1999/xlink" x="0px" y="0px"
	 viewBox="0 0 13 12.4" style="enable-background:new 0 0 13 12.4;" xml:space="preserve">
<title>btn_remeber me</title>
<desc>Created with Sketch.</desc>
<g>
	<path style="fill:none;" d="M2.3,2C1.9,2,1.6,2.3,1.6,2.7v2.1V10c0,0.4,0.3,0.7,0.7,0.7h7.3c0,0,0.1,0,0.1,0c0.4,0,0.6-0.3,0.6-0.7
		V6.8"/>
	<path style="fill:#434340;" d="M10.3,6.4c0.5,0,1.1,0,1.6,0"/>
	<path style="fill:#434340;" d="M6,0.4C6,0.9,6,1.5,6,2"/>
	<path style="fill:#434340;" d="M11.1,5.1L11.1,5.1c-0.4,0-0.8,0.4-0.8,0.8v0.5v0.4V7v3c0,0.4-0.3,0.6-0.6,0.7c0,0-0.1,0-0.1,0H2.3
		c-0.4,0-0.7-0.3-0.7-0.7V4.8V2.7C1.6,2.3,1.9,2,2.3,2h3.1H6h1.3c0.4,0,0.8-0.4,0.8-0.8S7.7,0.4,7.3,0.4H6H5.4H2.3
		C1.1,0.4,0.1,1.3,0,2.5c0,0.1,0,0.1,0,0.2V10c0,1.3,1,2.3,2.3,2.3h6c0,0,0,0,0,0h1.3c0.2,0,0.5,0,0.7-0.1c0.9-0.3,1.5-1.1,1.6-2
		c0,0,0-0.1,0-0.1v0V9V7V6.6V6.4V5.9C11.9,5.5,11.5,5.1,11.1,5.1z"/>
</g>
<path style="fill:#434340;" d="M12.7,0.2L12.7,0.2c-0.3-0.3-0.9-0.3-1.2,0L5.2,6.5L3.9,5.2C3.6,4.9,3,4.9,2.7,5.2s-0.3,0.9,0,1.2
	l1.9,1.9C4.8,8.5,5,8.6,5.2,8.6s0.4-0.1,0.6-0.2l6.9-6.9C13.1,1.1,13.1,0.5,12.7,0.2z"/>
<path style="fill:#434340;" d="M11.9,6.8"/>
<path style="fill:#434340;" d="M7.7,2"/>
</svg>
