<?xml version="1.0" encoding="UTF-8"?>
<svg viewBox="-1 0.5 15 13" version="1.1" xmlns="http://www.w3.org/2000/svg" xmlns:xlink="http://www.w3.org/1999/xlink">
    <!-- Generator: Sketch 51.2 (57519) - http://www.bohemiancoding.com/sketch -->
    <title>btn_remeber me</title>
    <desc>Created with Sketch.</desc>
    <defs></defs>
    <g id="Login" stroke="none" stroke-width="1" fill="none" fill-rule="evenodd">
        <g id="Log-In" transform="translate(-537.000000, -437.000000)" fill="#434340">
            <g id="Content" transform="translate(536.000000, 193.000000)">
                <g id="Log-in">
                    <g id="inputs" transform="translate(0.000000, 149.000000)">
                        <g id="btn_remeber-me" transform="translate(0.000000, 95.000000)">
                            <g transform="translate(2.000000, 1.000000)">
                                <g id="tick-box" fill-rule="nonzero" stroke="#434340">
                                    <path d="M10.6434353,4.08631529 C10.4595106,4.08631529 10.3100612,4.23556706 10.3100612,4.41968941 L10.3100612,9.50702118 C10.3100612,10.1503624 9.78660706,10.67376 9.14332235,10.67376 L1.83348706,10.67376 C1.19025882,10.67376 0.666748235,10.1503624 0.666748235,9.50702118 L0.666748235,2.19715765 C0.666748235,1.55378824 1.19025882,1.03039059 1.83348706,1.03039059 L7.14332235,1.03039059 C7.32755765,1.03039059 7.47675294,0.881110588 7.47675294,0.697016471 C7.47675294,0.512894118 7.32764235,0.363642353 7.14332235,0.363642353 L1.83348706,0.363642353 C0.822691765,0.363670588 0,1.18616471 0,2.19712941 L0,9.50699294 C0,10.5179859 0.822691765,11.34048 1.83348706,11.34048 L9.14332235,11.34048 C10.1544847,11.34048 10.9768659,10.5179859 10.9768659,9.50699294 L10.9768659,4.41966118 C10.9768094,4.23559529 10.8277271,4.08631529 10.6434353,4.08631529 Z" id="Shape"></path>
                                    <path d="M11.8772894,0.110992941 C11.7470965,-0.0192282353 11.5357553,-0.0192282353 11.4059576,0.110992941 L4.70741647,6.80919529 L3.03314824,5.13509647 C2.90295529,5.00490353 2.69195294,5.00490353 2.56176,5.13509647 C2.43156706,5.26531765 2.43156706,5.47634824 2.56176,5.60648471 L4.47204706,7.51629176 C4.53718588,7.58145882 4.62248471,7.61395765 4.70775529,7.61395765 C4.79305412,7.61395765 4.87838118,7.58145882 4.94346353,7.51629176 C4.94346353,7.51612235 4.94346353,7.51595294 4.94380235,7.51578353 L11.8772894,0.582352941 C12.0075106,0.452244706 12.0075106,0.241101176 11.8772894,0.110992941 Z" id="Shape"></path>
                                </g>
                            </g>
                        </g>
                    </g>
                </g>
            </g>
        </g>
    </g>
</svg>
