<?xml version="1.0" encoding="utf-8"?>
<!-- Generator: Adobe Illustrator 22.1.0, SVG Export Plug-In . SVG Version: 6.00 Build 0)  -->
<svg version="1.1" id="Layer_1" xmlns="http://www.w3.org/2000/svg" xmlns:xlink="http://www.w3.org/1999/xlink" x="0px" y="0px"
	 viewBox="0 0 13 12.4" style="enable-background:new 0 0 13 12.4;" xml:space="preserve">
<title>btn_remeber me</title>
<desc>Created with Sketch.</desc>
<path style="fill:#434340;" d="M9.6,0.4H2.3C1.1,0.4,0.1,1.3,0,2.5c0,0.1,0,0.1,0,0.2V10c0,1.3,1,2.3,2.3,2.3h6c0,0,0,0,0,0h1.3
	c0.2,0,0.5,0,0.7-0.1c0.9-0.3,1.5-1.1,1.6-2c0,0,0-0.1,0-0.1v0V9V2.7C11.9,1.4,10.9,0.4,9.6,0.4z M1.6,10V4.8V2.7
	C1.6,2.3,1.9,2,2.3,2h7.3c0.4,0,0.7,0.3,0.7,0.7V10c0,0.4-0.3,0.6-0.6,0.7c0,0-0.1,0-0.1,0H2.3C1.9,10.7,1.6,10.4,1.6,10z"/>
</svg>
