<?xml version="1.0" encoding="UTF-8"?>
<svg width="56px" height="56px" viewBox="0 0 56 56" version="1.1" xmlns="http://www.w3.org/2000/svg" xmlns:xlink="http://www.w3.org/1999/xlink">
    <!-- Generator: Sketch 51.1 (57501) - http://www.bohemiancoding.com/sketch -->
    <title>icon/chef-big</title>
    <desc>Created with Sketch.</desc>
    <defs></defs>
    <g id="Homepage" stroke="none" stroke-width="1" fill="none" fill-rule="evenodd">
        <g transform="translate(-617.000000, -1096.000000)" id="1st-Section">
            <g transform="translate(120.000000, 688.000000)">
                <g id="_" transform="translate(80.000000, 408.000000)">
                    <g id="choose_restaurant" transform="translate(417.000000, 0.000000)">
                        <g id="icon_restaurant">
                            <g id="icon/chef-big">
                                <g id="icon_-copy">
                                    <circle id="Oval-4" fill-opacity="0.126415308" fill="#9EDFAD" cx="28" cy="28" r="28"></circle>
                                    <g id="icon/chefs-hat" transform="translate(17.000000, 16.000000)" stroke="#7CD8AE" stroke-linecap="round" stroke-linejoin="round">
                                        <g id="Group" transform="translate(0.733333, 0.705882)">
                                            <path d="M16.6006133,12 L16.6006133,15.5294118 C16.6006133,19.0390588 13.64528,21.8823529 10.0006133,21.8823529 C6.35594667,21.8823529 3.40061333,19.0390588 3.40061333,15.5294118 L3.40061333,12" id="Stroke-1" stroke-width="1.4"></path>
                                            <path d="M19.2646667,5.16451765 C19.2646667,3.31651765 17.7070667,1.82004706 15.7901333,1.82004706 C15.0333333,1.82145882 14.2985333,2.06428235 13.7016,2.50898824 C12.1997333,0.5424 9.32506667,0.118870588 7.282,1.56451765 C6.90653333,1.82992941 6.57653333,2.14757647 6.3008,2.50898824 C5.70093333,2.06428235 4.9676,1.82145882 4.21226667,1.82004706 C2.2968,1.8144 0.7392,3.30522353 0.733333333,5.14898824 C0.728933333,6.69910588 1.83333333,8.04875294 3.4012,8.40734118 L3.4012,12.0002824 L16.6012,12.0002824 L16.6012,8.40734118 C18.1602667,8.04875294 19.2617333,6.70757647 19.2646667,5.16451765 Z" id="Stroke-3" stroke-width="1.4"></path>
                                            <path d="M7.80061333,12 L7.80061333,9.17647059" id="Stroke-5" stroke-width="1.4"></path>
                                            <path d="M12.2006133,12 L12.2006133,9.17647059" id="Stroke-7" stroke-width="1.4"></path>
                                        </g>
                                    </g>
                                </g>
                            </g>
                        </g>
                    </g>
                </g>
            </g>
        </g>
    </g>
</svg>