<svg id="Layer_1" data-name="Layer 1" xmlns="http://www.w3.org/2000/svg" viewBox="0 0 21.71 12.82"><title>20mindelivery_food</title><path d="M1380.18,366.35h-6.25a0.85,0.85,0,1,0,0,1.7h6.25A0.85,0.85,0,0,0,1380.18,366.35Z" transform="translate(-1373.08 -366.28)"/><path d="M1380.18,370.82h-3.27a0.85,0.85,0,1,0,0,1.7h3.27A0.85,0.85,0,0,0,1380.18,370.82Z" transform="translate(-1373.08 -366.28)"/><path d="M1380.18,375.29h-0.47a0.85,0.85,0,1,0,0,1.7h0.47A0.85,0.85,0,0,0,1380.18,375.29Z" transform="translate(-1373.08 -366.28)"/><path d="M1394.38,371.42l-2-.64-1.42-4.11a0.6,0.6,0,0,0-.57-0.4h-6.81a0.6,0.6,0,0,0-.6.6v9.51a0.6,0.6,0,0,0,.6.6h2.65a2.72,2.72,0,0,0,5.3,0h2.65a0.6,0.6,0,0,0,.6-0.6V372A0.6,0.6,0,0,0,1394.38,371.42Zm-5.48,6.48a1.51,1.51,0,1,1,1.52-1.51A1.52,1.52,0,0,1,1388.89,377.9Zm4.7-2.11h-2.05a2.72,2.72,0,0,0-5.3,0h-2.05v-8.31H1390l1.38,4a0.6,0.6,0,0,0,.38.38l1.86,0.6v3.35Z" transform="translate(-1373.08 -366.28)"/><path d="M1388.89,370.6h-1.62V369a0.5,0.5,0,0,0-1,0v2.11a0.5,0.5,0,0,0,.5.5h2.12A0.5,0.5,0,0,0,1388.89,370.6Z" transform="translate(-1373.08 -366.28)"/></svg>