<svg id="Layer_1" data-name="Layer 1" xmlns="http://www.w3.org/2000/svg" viewBox="0 0 15.21 12.77"><title>desserts_food</title><path d="M1390.72,224.18a4.51,4.51,0,0,0-2.84-3.67,2.08,2.08,0,0,0-4.1.52,2.11,2.11,0,0,0,0,.36l-7.89,2.27h0a0.52,0.52,0,0,0-.37.5v7a0.52,0.52,0,0,0,.52.52h14.14a0.52,0.52,0,0,0,.52-0.52S1390.8,225.93,1390.72,224.18Zm-4.86-4.21a1.06,1.06,0,1,1-1,1.06A1.05,1.05,0,0,1,1385.86,220Zm-1.62,2.38a2.08,2.08,0,0,0,3.61-.69,4.59,4.59,0,0,1,.59.39,3.15,3.15,0,0,1,1.14,1.59h-9.83Zm5.44,8.32h-13.1v-3.12h13.1v3.12Zm0-4.16h-13.1v-1.82h13.1v1.82Z" transform="translate(-1375.54 -218.93)" fill="#000100"/></svg>