<?xml version="1.0" encoding="UTF-8"?>
<svg width="56px" height="56px" viewBox="0 0 56 56" version="1.1" xmlns="http://www.w3.org/2000/svg" xmlns:xlink="http://www.w3.org/1999/xlink">
    <!-- Generator: sketchtool 52.4 (67378) - http://www.bohemiancoding.com/sketch -->
    <title>95BA3476-3394-40DC-B999-EA0996561FE3</title>
    <desc>Created with sketchtool.</desc>
    <g id="Card-Verification-Process" stroke="none" stroke-width="1" fill="none" fill-rule="evenodd">
        <g id="Checkout---Backed-info-pop-up" transform="translate(-704.000000, -288.000000)">
            <g id="Oops" transform="translate(552.000000, 256.000000)">
                <g id="icon/pin-red-large" transform="translate(152.000000, 32.000000)">
                    <g id="icon/error-generic">
                        <path d="M28,0 L28,0 C43.463973,-2.84068575e-15 56,12.536027 56,28 L56,28 C56,43.463973 43.463973,56 28,56 L28,56 C12.536027,56 1.8937905e-15,43.463973 0,28 L0,28 C-1.8937905e-15,12.536027 12.536027,2.84068575e-15 28,0 Z" id="Rectangle-12" fill-opacity="0.104421422" fill="#FC9287"></path>
                        <g id="icon/tick" transform="translate(24.500000, 24.000000)">
                            <rect id="Background" x="0" y="0" width="8" height="8"></rect>
                            <g id="x" transform="translate(0.235294, 0.235294)" stroke="#FC9287" stroke-linecap="round" stroke-width="1.4">
                                <path d="M0.235294118,0.235294118 L7.29411765,7.29411765" id="Path-5"></path>
                                <path d="M7.29411765,0.235294118 L0.235294118,7.29411765 L7.29411765,0.235294118 Z" id="Path-5" stroke-linejoin="round"></path>
                            </g>
                        </g>
                        <circle id="Oval" stroke="#FC9287" stroke-width="1.4" fill-rule="nonzero" cx="28" cy="28" r="16"></circle>
                    </g>
                </g>
            </g>
        </g>
    </g>
</svg>