<svg id="Layer_1" data-name="Layer 1" xmlns="http://www.w3.org/2000/svg" viewBox="0 0 17.63 13.5"><title>fast_food</title><path d="M1545.77,219.41a20.19,20.19,0,0,0-12,0,4.73,4.73,0,0,0-2.68,4.68v1.52h0.77a1.78,1.78,0,0,0,.26,2h-1v0.51a3.57,3.57,0,0,0,3.59,3.55h10.19a3.56,3.56,0,0,0,3.55-3.55v-0.51h-1a1.78,1.78,0,0,0,.26-2h0.72v-1.52A4.73,4.73,0,0,0,1545.77,219.41Zm-13.63,4.68a3.71,3.71,0,0,1,2.11-3.76,19.45,19.45,0,0,1,11.08,0,3.71,3.71,0,0,1,2.11,3.76v0.51h-15.3v-0.51Zm14,3.17h-12.59a0.82,0.82,0,0,1,0-1.65h12.67A0.82,0.82,0,0,1,1546.11,227.26Zm-1.21,3.43h-10.19a2.57,2.57,0,0,1-2.52-2h15.19A2.55,2.55,0,0,1,1544.9,230.69Z" transform="translate(-1530.97 -218.36)" fill="#000100" stroke="#000100" stroke-miterlimit="10" stroke-width="0.3"/><circle cx="12.48" cy="3.15" r="0.49" fill="#000100" stroke="#000100" stroke-miterlimit="10" stroke-width="0.3"/><circle cx="5.15" cy="3.15" r="0.49" fill="#000100" stroke="#000100" stroke-miterlimit="10" stroke-width="0.3"/><circle cx="8.81" cy="3.93" r="0.49" fill="#000100" stroke="#000100" stroke-miterlimit="10" stroke-width="0.3"/></svg>