<svg id="Layer_1" data-name="Layer 1" xmlns="http://www.w3.org/2000/svg" viewBox="0 0 17.74 16.4"><title>food_beverage_food</title><path d="M1548,307.56h-0.2v-0.87a6.19,6.19,0,0,0-1.83-4.4,6.09,6.09,0,0,0-2.9-1.62,0.52,0.52,0,0,0-.15-0.06l-0.48-.09v-0.34a1.5,1.5,0,0,0-3,0v0.34a6.25,6.25,0,0,0-5.33,6.17v0.72h-1.53a0.33,0.33,0,0,1-.29-0.29,20.68,20.68,0,0,0,.42-2.38,10.22,10.22,0,0,0-.12-1.41,18.94,18.94,0,0,1-.2-2.78,11.34,11.34,0,0,1,.83-3.65,6.2,6.2,0,0,0,.47-1.8v-1.3h1.6v1.3a6.18,6.18,0,0,0,.47,1.8c0.2,0.56.42,1.2,0.59,1.87a0.7,0.7,0,0,0,1.36-.34c-0.18-.74-0.42-1.41-0.63-2a6.57,6.57,0,0,1-.39-1.33v-2a0.7,0.7,0,0,0-.7-0.7h-3a0.7,0.7,0,0,0-.7.7v2a6.58,6.58,0,0,1-.39,1.34,12.64,12.64,0,0,0-.91,4.11,20.11,20.11,0,0,0,.21,3,10.63,10.63,0,0,1,.12,1.14,20,20,0,0,1-.41,2.22,0.62,0.62,0,0,0,0,.14,1.75,1.75,0,0,0,1.61,1.78H1548A0.62,0.62,0,0,0,1548,307.56Zm-7.34-7.38a0.27,0.27,0,0,1,.55,0v0.27h-0.55v-0.27Zm5.88,7.22h-11.21v-0.72a5,5,0,0,1,3.83-4.86h0.09l0.39-.07,0.38,0h1.54A5,5,0,0,1,1545,303l0,0a5,5,0,0,1,1.53,3.59v0.72Z" transform="translate(-1530.92 -292.4)"/></svg>