<?xml version="1.0" encoding="utf-8"?>
<!-- Generator: Adobe Illustrator 22.1.0, SVG Export Plug-In . SVG Version: 6.00 Build 0)  -->
<svg version="1.1" id="Layer_1" xmlns="http://www.w3.org/2000/svg" xmlns:xlink="http://www.w3.org/1999/xlink" x="0px" y="0px"
	 viewBox="0 0 16 13.7" style="enable-background:new 0 0 16 13.7;" xml:space="preserve">
<style type="text/css">
	.st0{fill:none;stroke:#969696;stroke-width:1.4;}
	.st1{fill:none;stroke:#969696;stroke-width:1.4;stroke-linecap:round;stroke-linejoin:round;}
	.st2{fill:none;stroke:#979696;stroke-width:1.4;stroke-linecap:round;}
</style>
<title>icon/gluten free</title>
<desc>Created with Sketch.</desc>
<g id="New-Checkout">
	<g id="Checkout---Add-New-Address-Pop-Up-Save-Address" transform="translate(-784.000000, -426.000000)">
		<g id="Add-New-Address" transform="translate(348.000000, 45.000000)">
			<g id="form" transform="translate(26.000000, 339.000000)">
				<g id="Save-address" transform="translate(2.000000, 78.000000)">
					<g id="tags">
						<g id="other" transform="translate(496.000000, 54.000000)">
							<g id="icon_x2F_other" transform="translate(13.000000, 11.000000)">
								<g id="Group-7">
									<path id="Stroke-1" class="st0" d="M-96.9-89.6c1.4,0,2.6-1.2,2.6-2.7s-1.2-2.7-2.6-2.7c-1.4,0-2.6,1.2-2.6,2.7
										S-98.3-89.6-96.9-89.6z"/>
									<polyline id="Stroke-3" class="st1" points="-93.1,-95.4 -92.8,-96 -92.3,-96.8 -88.3,-89.6 -96.4,-89.6 									"/>
									<path id="Stroke-5" class="st2" d="M-95.5-96.9c0-1,0.8-1.8,1.8-1.8h5.3c1,0,1.8,0.8,1.8,1.8v5.5c0,1-0.8,1.8-1.8,1.8h-5.3
										"/>
								</g>
							</g>
						</g>
					</g>
				</g>
			</g>
		</g>
	</g>
</g>
</svg>
