<svg width="145" height="40" xmlns="http://www.w3.org/2000/svg" xmlns:xlink="http://www.w3.org/1999/xlink"><defs><linearGradient x1="50%" y1="0%" x2="50%" y2="38.9125982%" id="b"><stop stop-color="#FBDA09" offset="0%"/><stop stop-color="#FFBC00" offset="100%"/></linearGradient><path d="M12.3279072 3.5646581l7.2220392 13.1676623c.7863728 1.4337628.2615594 3.2335384-1.1722034 4.0199111-.4364085.2393561-.9261153.3648334-1.4238539.3648334H2.5100206c-1.6352548 0-2.9608906-1.3256359-2.9608906-2.9608906 0-.4977264.125471-.9874214.3648159-1.4238221L7.1357753 3.5646899c.7863552-1.4337724 2.5861243-1.9586078 4.0198968-1.1722526.4943916.27115.9010791.6778325 1.1722351 1.1722208z" id="a"/><linearGradient x1="0%" y1="58.4755255%" x2="69.3064856%" y2="39.0830098%" id="c"><stop stop-color="#01E2FF" offset="0%"/><stop stop-color="#01C4FF" offset="100%"/></linearGradient><linearGradient x1="20.2810876%" y1="20.1019903%" x2="83.820166%" y2="83.6214476%" id="e"><stop stop-color="#28D781" offset="0%"/><stop stop-color="#02F076" offset="100%"/></linearGradient><linearGradient x1="74.4881466%" y1="17.4301299%" x2="10.1079427%" y2="91.1838038%" id="f"><stop stop-color="#F2414E" offset="0%"/><stop stop-color="#E02554" offset="100%"/></linearGradient></defs><g fill="none" fill-rule="evenodd"><path d="M145 35.9903685C145 38.2056114 143.133346 40 140.824533 40H4.1809121C1.8731881 40 0 38.2056114 0 35.9903685V4.014866C0 1.80067 1.873188 0 4.1809121 0H140.823444c2.309902 0 4.175467 1.80067 4.175467 4.014866L145 35.9903685z" fill="#FFF"/><path d="M55.0893658 12.7783817c0 .696145-.2041342 1.2532035-.6050629 1.6690392-.4623983.4932115-1.0635619.7412414-1.7995917.7412414-.7046069 0-1.3057705-.2523022-1.7989036-.7493113-.4938212-.5046042-.7408465-1.1236108-.7408465-1.8639028 0-.7414787.2470253-1.3600106.7408465-1.86058.493133-.5012813 1.0942967-.7535834 1.7989036-.7535834.3500098 0 .6844229.0738155 1.0036979.2119527.3176694.1381373.5766216.3254057.7640122.5572958l-.4257.4395706c-.3270734-.3951863-.772728-.59005-1.34201-.59005-.5140053 0-.9594306.184183-1.3374229.553973-.374093.370502-.5614836.8513714-.5614836 1.4414213 0 .5891006.1873906 1.0740049.5614836 1.4447443.3779923.366467.8234176.5537355 1.3374228.5537355.54474 0 1.0036979-.1872685 1.3651759-.5580078.23808-.244707.3738637-.5826922.4096445-1.0139556h-1.7748204v-.60168h2.3681856c.0277531.1300673.036469.255625.036469.3780971" fill="#FFF"/><path d="M55.0893658 12.7783817c0 .696145-.2041342 1.2532035-.6050629 1.6690392-.4623983.4932115-1.0635619.7412414-1.7995917.7412414-.7046069 0-1.3057705-.2523022-1.7989036-.7493113-.4938212-.5046042-.7408465-1.1236108-.7408465-1.8639028 0-.7414787.2470253-1.3600106.7408465-1.86058.493133-.5012813 1.0942967-.7535834 1.7989036-.7535834.3500098 0 .6844229.0738155 1.0036979.2119527.3176694.1381373.5766216.3254057.7640122.5572958l-.4257.4395706c-.3270734-.3951863-.772728-.59005-1.34201-.59005-.5140053 0-.9594306.184183-1.3374229.553973-.374093.370502-.5614836.8513714-.5614836 1.4414213 0 .5891006.1873906 1.0740049.5614836 1.4447443.3779923.366467.8234176.5537355 1.3374228.5537355.54474 0 1.0036979-.1872685 1.3651759-.5580078.23808-.244707.3738637-.5826922.4096445-1.0139556h-1.7748204v-.60168h2.3681856c.0277531.1300673.036469.255625.036469.3780971z" stroke="#434340" stroke-width=".664125"/><path fill="#FFF" d="M58.8457554 10.6893058h-2.2243742v1.5845429h2.0060195v.6023921h-2.0060195v1.5843055h2.2243742v.6140223h-2.853291V10.076233h2.853291z"/><path stroke="#434340" stroke-width=".664125" d="M58.8457554 10.6893058h-2.2243742v1.5845429h2.0060195v.6023921h-2.0060195v1.5843055h2.2243742v.6140223h-2.853291V10.076233h2.853291z"/><path fill="#FFF" d="M61.4974582 15.0745686h-.6298342v-4.3852628h-1.3642584v-.6130728h3.3592685v.6130728h-1.3651759z"/><path stroke="#434340" stroke-width=".664125" d="M61.4974582 15.0745686h-.6298342v-4.3852628h-1.3642584v-.6130728h3.3592685v.6130728h-1.3651759z"/><path fill="#FFF" d="M65.2943765 15.074711h.7645474v-4.9983356h-.7645474z"/><path stroke="#434340" stroke-width=".664125" d="M65.2943765 15.074711h.7645474v-4.9983356h-.7645474z"/><path fill="#FFF" d="M68.7092199 15.0745686h-.6241v-4.3852628h-1.3699925v-.6130728h3.3640851v.6130728h-1.3699926z"/><path stroke="#434340" stroke-width=".664125" d="M68.7092199 15.0745686h-.6241v-4.3852628h-1.3699925v-.6130728h3.3640851v.6130728h-1.3699926z"/><path d="M73.3185464 14.0119564c.3628542.3747743.8036922.5620428 1.329395.5620428.5218036 0 .9674583-.1872685 1.3254959-.5620427.3619367-.3740623.5456575-.8546943.5456575-1.436437 0-.5826922-.1837208-1.0635616-.5456575-1.4373865-.3580376-.3740622-.8036923-.5622801-1.3254959-.5622801-.5257028 0-.9665408.1882179-1.329395.5622801-.3621662.373825-.5456575.8546943-.5456575 1.4373864 0 .5817428.1834913 1.0623748.5456575 1.436437m3.120959.4191586c-.4818943.5053164-1.0793881.7576185-1.791564.7576185-.7163045 0-1.3135689-.2523021-1.7954632-.7576185-.480518-.5046043-.720433-1.1233735-.720433-1.8555956 0-.7331715.239915-1.352178.720433-1.8567823.4818943-.505079 1.0791587-.7573811 1.7954632-.7573811.7085061 0 1.3055412.2523021 1.7876648.7616534.4844172.5088765.7243322 1.1233735.7243322 1.85251 0 .7322221-.239915 1.3509914-.720433 1.8555956" fill="#FFF"/><path d="M73.3185464 14.0119564c.3628542.3747743.8036922.5620428 1.329395.5620428.5218036 0 .9674583-.1872685 1.3254959-.5620427.3619367-.3740623.5456575-.8546943.5456575-1.436437 0-.5826922-.1837208-1.0635616-.5456575-1.4373865-.3580376-.3740622-.8036923-.5622801-1.3254959-.5622801-.5257028 0-.9665408.1882179-1.329395.5622801-.3621662.373825-.5456575.8546943-.5456575 1.4373864 0 .5817428.1834913 1.0623748.5456575 1.436437zm3.120959.4191586c-.4818943.5053164-1.0793881.7576185-1.791564.7576185-.7163045 0-1.3135689-.2523021-1.7954632-.7576185-.480518-.5046043-.720433-1.1233735-.720433-1.8555956 0-.7331715.239915-1.352178.720433-1.8567823.4818943-.505079 1.0791587-.7573811 1.7954632-.7573811.7085061 0 1.3055412.2523021 1.7876648.7616534.4844172.5088765.7243322 1.1233735.7243322 1.85251 0 .7322221-.239915 1.3509914-.720433 1.8555956z" stroke="#434340" stroke-width=".664125"/><path fill="#FFF" d="M78.0431512 15.0745686V10.076233h.7647004l2.375984 3.8870669h.027065l-.027065-.961264v-2.925803h.6282286v4.9983357h-.6559817l-2.4879137-4.0795571h-.0277531l.0277531.9648243v3.1147328z"/><path stroke="#434340" stroke-width=".664125" d="M78.0431512 15.0745686V10.076233h.7647004l2.375984 3.8870669h.027065l-.027065-.961264v-2.925803h.6282286v4.9983357h-.6559817l-2.4879137-4.0795571h-.0277531l.0277531.9648243v3.1147328z"/><path d="M103.6046245 29.2499138h1.524584V18.8276756h-1.524584v10.4222382zm13.7040538-6.6683241l-1.7470674 4.5184156h-.052295l-1.806702-4.5184156h-1.6392661l2.7142962 6.3141992-1.5486672 3.5122926h1.5885766l4.182686-9.8264918h-1.6915611zm-8.6293703 5.4832399c-.4972617 0-1.1904004-.2523022-1.1904004-.8827015 0-.8069871.8642445-1.1160157 1.6122012-1.1160157.6695142 0 .9830551.1504794 1.3897178.3503274-.11904.9645869-.9316774 1.6483898-1.8115186 1.6483898zm.1834914-5.7115698c-1.098196 0-2.2408885.496297-2.7103971 1.5959356l1.3493497.5786572c.2896871-.5786572.8241057-.7659256 1.3881123-.7659256.7894717 0 1.5890354.4839549 1.6009623 1.3400732v.109418c-.2747783-.1625842-.864015-.4034936-1.5883472-.4034936-1.4532518 0-2.9335685.8179052-2.9335685 2.3447722 0 1.3970371 1.1904004 2.2961156 2.5278232 2.2961156 1.022735 0 1.5874298-.4725621 1.9424856-1.0215507h.0516069v.8053257h1.4683898v-3.997197c0-1.8482377-1.3493497-2.8821306-3.096417-2.8821306zm-9.3979698 1.4981478h-2.164969v-3.5740034h2.164969c1.1348942 0 1.7828481.9641122 1.7828481 1.7867643 0 .8060377-.6479539 1.7872391-1.7828481 1.7872391zm-.03968-5.023732h-3.6462032v10.4222382h1.5209142v-3.949015h2.125289c1.68835 0 3.3441304-1.2496432 3.3441304-3.2367303 0-1.9863749-1.6599089-3.2364929-3.3441304-3.2364929zm-19.8741809 9.2411889c-1.0504881 0-1.9296412-.8990785-1.9296412-2.137329 0-1.250118.8791531-2.1615387 1.9296412-2.1615387 1.0358089 0 1.8521162.9114207 1.8521162 2.1615387 0 1.2382505-.8163073 2.137329-1.8521162 2.137329zm1.7440856-4.9052947h-.051607c-.3422114-.4151237-.994982-.789898-1.8225281-.789898-1.7360578 0-3.3234876 1.5591465-3.3234876 3.5578637 0 1.987087 1.5874298 3.533654 3.3234876 3.533654.8275461 0 1.4803167-.3778598 1.8225281-.8053256h.051607v.5086392c0 1.3559756-.7082767 2.0841628-1.8505106 2.0841628-.9314481 0-1.5096753-.6878378-1.7477554-1.2662577l-1.3254958.5658404c.3821208.9403773 1.393617 2.096505 3.0732512 2.096505 1.7869767 0 3.2952759-1.0747169 3.2952759-3.6922033v-6.3673655h-1.4447653v.574385zm2.4961709 6.086344h1.5248133V18.8276756h-1.5248133v10.4222382zm3.7689129-3.4401384c-.03968-1.3676058 1.03902-2.0675484 1.8108306-2.0675484.6050628 0 1.1190681.3090286 1.289715.7519221l-3.1005456 1.3156263zm4.7285729-1.1810494c-.2867053-.7927461-1.1697575-2.2550542-2.9695786-2.2550542-1.7835362 0-3.2677521 1.4366744-3.2677521 3.5462336 0 1.9863749 1.4690778 3.5452841 3.4386284 3.5452841 1.5931639 0 2.511997-.9925941 2.8899893-1.5712513l-1.1814551-.8053257c-.3949652.5891006-.9319069.980252-1.7085342.980252-.7711225 0-1.3245784-.3614827-1.6787167-1.0749543l4.6370565-1.9614533-.1603256-.4037309h.0006881zm-36.9333745-1.1684698v1.5071671h3.5182179c-.103214.8423521-.3782216 1.4611213-.799793 1.892622-.513776.5209814-1.313569 1.0996386-2.7184249 1.0996386-2.165657 0-3.8611174-1.7874764-3.8611174-4.0021813 0-2.2149422 1.6954604-4.0021812 3.8611174-4.0021812 1.170675 0 2.0227631.4682899 2.6509917 1.0747169l1.0387906-1.0616627c-.8800705-.8587292-2.049828-1.5187972-3.6897823-1.5187972-2.9693492 0-5.4646027 2.4712793-5.4646027 5.5079242 0 3.0364076 2.4952535 5.5076869 5.4646027 5.5076869 1.6041734 0 2.8097118-.5373584 3.7581329-1.546567.97044-.9928315 1.2729714-2.3898685 1.2729714-3.5175143 0-.3498526-.0286705-.6721728-.07936-.940852h-4.9517443zm9.0321339 4.6086083c-1.0514056 0-1.9585412-.8867364-1.9585412-2.1489591 0-1.2788372.9071356-2.1499086 1.9585412-2.1499086 1.0507175 0 1.9541832.8710714 1.9541832 2.1499086 0 1.2622227-.9034657 2.1489591-1.9541832 2.1489591zm0-5.6951927c-1.9186318 0-3.479226 1.4900779-3.479226 3.5462336 0 2.0397785 1.5605942 3.5452841 3.479226 3.5452841 1.9170262 0 3.4783085-1.5055056 3.4783085-3.5452841 0-2.0561557-1.5612823-3.5462336-3.4783085-3.5462336zm7.5896622 5.6951927c-1.0504881 0-1.9544126-.8867364-1.9544126-2.1489591 0-1.2788372.9039245-2.1499086 1.9544126-2.1499086 1.0507175 0 1.9585411.8710714 1.9585411 2.1499086 0 1.2622227-.9078236 2.1489591-1.9585411 2.1489591zm0-5.6951927c-1.9147325 0-3.4783085 1.4900779-3.4783085 3.5462336 0 2.0397785 1.563576 3.5452841 3.4783085 3.5452841 1.9186318 0 3.4831252-1.5055056 3.4831252-3.5452841 0-2.0561557-1.5644934-3.5462336-3.4831252-3.5462336z" fill="#434340"/><g transform="translate(23.546188 9.395131)"><mask id="d" fill="#fff"><use xlink:href="#a"/></mask><use fill="url(#b)" transform="rotate(90 9.732176 11.270771)" xlink:href="#a"/><path fill="url(#c)" mask="url(#d)" d="M.2293642-.4064615l11.1465899 11.4891088L.0853894 23.0258619z"/><path fill="url(#e)" mask="url(#d)" d="M-2.062789-2.7716601l13.4374203 13.8576679 3.9951016-3.952451z"/><path fill="url(#f)" mask="url(#d)" d="M11.3764617 11.083364l6.1161001 6.393119-18.2712675 6.3931189z"/></g></g></svg>
