<?xml version="1.0" encoding="UTF-8"?>
<svg width="32px" height="32px" viewBox="0 0 32 32" version="1.1" xmlns="http://www.w3.org/2000/svg" xmlns:xlink="http://www.w3.org/1999/xlink">
    <!-- Generator: Sketch 51.2 (57519) - http://www.bohemiancoding.com/sketch -->
    <title>icon/gmail</title>
    <desc>Created with Sketch.</desc>
    <defs></defs>
    <g id="Login" stroke="none" stroke-width="1" fill="none" fill-rule="evenodd">
        <g id="Log-In" transform="translate(-668.000000, -280.000000)">
            <g id="Content" transform="translate(536.000000, 193.000000)">
                <g id="Log-in">
                    <g id="social_media_icons" transform="translate(132.000000, 87.000000)">
                        <g id="gmail">
                            <g id="icon/gmail">
                                <circle id="Oval" fill="#FF5F4F" fill-rule="nonzero" cx="16" cy="16" r="16"></circle>
                                <g id="logo-google-plus" stroke-width="1" fill-rule="evenodd" transform="translate(7.500000, 9.500000)" fill="#FFFFFF">
                                    <polygon id="Shape" fill-rule="nonzero" points="18 5.6875 16.4347826 5.6875 16.4347826 4.0625 14.8695652 4.0625 14.8695652 5.6875 13.3043478 5.6875 13.3043478 7.3125 14.8695652 7.3125 14.8695652 8.9375 16.4347826 8.9375 16.4347826 7.3125 18 7.3125"></polygon>
                                    <path d="M12.4189426,5.57141765 L6.76313536,5.56801088 L6.76313536,7.86212853 L9.99522647,7.86212853 C9.82080145,8.83308706 8.86533199,10.6042682 6.38740561,10.6042682 C4.20654996,10.6042682 2.4271991,8.76568971 2.4271991,6.49999618 C2.4271991,4.23429882 4.20654996,2.39572029 6.38740561,2.39572029 C7.62838835,2.39572029 8.45873605,2.93429118 8.93326017,3.39855559 L10.6669749,1.69929882 C9.55372524,0.640689706 8.11199386,0 6.38740561,0 C2.85608709,0 0,2.90642912 0,6.5 C0,10.0935632 2.85608709,13 6.38740561,13 C10.7817791,13 13.0452653,9.28831265 12.4189426,5.57141765 Z" id="Shape" fill-rule="nonzero"></path>
                                </g>
                            </g>
                        </g>
                    </g>
                </g>
            </g>
        </g>
    </g>
</svg>
