<?xml version="1.0" encoding="utf-8"?>
<!-- Generator: Adobe Illustrator 22.1.0, SVG Export Plug-In . SVG Version: 6.00 Build 0)  -->
<svg version="1.1" id="Layer_1" xmlns="http://www.w3.org/2000/svg" xmlns:xlink="http://www.w3.org/1999/xlink" x="0px" y="0px"
	 viewBox="0 0 24.4 24.2" style="enable-background:new 0 0 24.4 24.2;" xml:space="preserve">
<style type="text/css">
	.st0{fill:none;}
</style>
<title>icon/gps</title>
<desc>Created with Sketch.</desc>
<g id="New-Checkout">
	<g id="Checkout---Add-New-Address-Pop-Up-Save-Address" transform="translate(-889.000000, -49.000000)">
		<g id="icon_x2F_gps" transform="translate(989.000000, 149.000000)">
			<g id="baseline-gps_fixed-24px">
				<polygon id="Path" class="st0" points="-98.9,-98.9 -76.9,-98.9 -76.9,-76.9 -98.9,-76.9 				"/>
				<path id="Shape" d="M-87.9-91.6c-2,0-3.6,1.6-3.6,3.6c0,2,1.6,3.6,3.6,3.6s3.6-1.6,3.6-3.6C-84.2-89.9-85.9-91.6-87.9-91.6z
					 M-79.7-88.8c-0.4-3.8-3.4-6.8-7.2-7.2v-1.9h-1.8v1.9c-3.8,0.4-6.8,3.4-7.2,7.2h-1.9v1.8h1.9c0.4,3.8,3.4,6.8,7.2,7.2v1.9h1.8
					v-1.9c3.8-0.4,6.8-3.4,7.2-7.2h1.9v-1.8H-79.7z M-87.9-81.6c-3.5,0-6.4-2.8-6.4-6.4s2.8-6.4,6.4-6.4s6.4,2.8,6.4,6.4
					S-84.4-81.6-87.9-81.6z"/>
			</g>
		</g>
	</g>
</g>
</svg>
