<svg id="Layer_1" data-name="Layer 1" xmlns="http://www.w3.org/2000/svg" viewBox="0 0 20.12 21.46"><title>grills_food</title><path d="M1468,224.77h-18.83a0.65,0.65,0,0,0,0,1.29h1.21a8.72,8.72,0,0,0,3.81,4.57v0l-1.31,4a0.8,0.8,0,1,0,1.52.49l1.25-3.86a8.45,8.45,0,0,0,5.74.06l1.23,3.8a0.8,0.8,0,0,0,.76.55,0.8,0.8,0,0,0,.76-1l-1.29-4a8.72,8.72,0,0,0,3.94-4.65H1468A0.65,0.65,0,1,0,1468,224.77Zm-2.6,1.3a7.42,7.42,0,0,1-13.63,0h13.63Z" transform="translate(-1448.52 -214.28)" fill="#000100"/><path d="M1461,222.47a0.65,0.65,0,0,0,1.3,0,1.12,1.12,0,0,1,.37-0.84,2.4,2.4,0,0,0,0-3.35,1.13,1.13,0,0,1,0-1.68,2.39,2.39,0,0,0,.68-1.68,0.65,0.65,0,0,0-1.3,0,1.12,1.12,0,0,1-.38.84,2.4,2.4,0,0,0,0,3.35,1.12,1.12,0,0,1,0,1.68A2.38,2.38,0,0,0,1461,222.47Z" transform="translate(-1448.52 -214.28)" fill="#000100"/><path d="M1457.4,222.47a0.65,0.65,0,0,0,1.3,0,1.12,1.12,0,0,1,.37-0.84,2.4,2.4,0,0,0,0-3.35,1.13,1.13,0,0,1,0-1.68,2.39,2.39,0,0,0,.68-1.68,0.65,0.65,0,0,0-1.3,0,1.12,1.12,0,0,1-.38.84,2.4,2.4,0,0,0,0,3.35,1.12,1.12,0,0,1,0,1.68A2.38,2.38,0,0,0,1457.4,222.47Z" transform="translate(-1448.52 -214.28)" fill="#000100"/><path d="M1453.75,222.47a0.65,0.65,0,0,0,1.3,0,1.12,1.12,0,0,1,.38-0.84,2.4,2.4,0,0,0,0-3.35,1.13,1.13,0,0,1,0-1.68,2.39,2.39,0,0,0,.68-1.68,0.65,0.65,0,0,0-1.3,0,1.11,1.11,0,0,1-.38.84,2.4,2.4,0,0,0,0,3.35,1.12,1.12,0,0,1,0,1.68A2.38,2.38,0,0,0,1453.75,222.47Z" transform="translate(-1448.52 -214.28)" fill="#000100"/></svg>