<?xml version="1.0" encoding="utf-8"?>
<!-- Generator: Adobe Illustrator 22.1.0, SVG Export Plug-In . SVG Version: 6.00 Build 0)  -->
<svg version="1.1" id="Layer_1" xmlns="http://www.w3.org/2000/svg" xmlns:xlink="http://www.w3.org/1999/xlink" x="0px" y="0px"
	 viewBox="0 0 14.5 14" style="enable-background:new 0 0 14.5 14;" xml:space="preserve">
<style type="text/css">
	.st0{opacity:0.5;}
	.st1{fill:none;stroke:#434340;stroke-width:1.5;stroke-linecap:round;stroke-linejoin:round;}
</style>
<title>icon/home</title>
<desc>Created with Sketch.</desc>
<g id="New-Checkout">
	<g id="Checkout---Add-New-Address-Pop-Up-Save-Address" transform="translate(-304.000000, -425.000000)">
		<g id="Add-New-Address" transform="translate(348.000000, 45.000000)" class="st0">
			<g id="form" transform="translate(26.000000, 339.000000)">
				<g id="Save-address" transform="translate(2.000000, 78.000000)">
					<g id="tags">
						<g id="home" transform="translate(14.000000, 54.000000)">
							<g id="icon_x2F_home-tap-bar-active" transform="translate(14.000000, 9.000000)">
								<path id="Shape" class="st1" d="M-92.9-98.2l-4.6,3.6c-0.1,0.1-0.2,0.2-0.2,0.3v5.9c0,0.3,0.2,0.5,0.5,0.5h2.3
									c0.3,0,0.5-0.2,0.5-0.5v-2.6c0-0.3,0.2-0.5,0.5-0.5h2.3c0.3,0,0.5,0.2,0.5,0.5v2.6c0,0.3,0.2,0.5,0.5,0.5h2.3
									c0.3,0,0.5-0.2,0.5-0.5v-5.9c0-0.1-0.1-0.3-0.2-0.3l-4.6-3.6C-92.3-98.4-92.7-98.4-92.9-98.2z"/>
							</g>
						</g>
					</g>
				</g>
			</g>
		</g>
	</g>
</g>
</svg>
