<?xml version="1.0" encoding="UTF-8"?>
<svg width="13px" height="11px" viewBox="0 0 13 11" version="1.1" xmlns="http://www.w3.org/2000/svg" xmlns:xlink="http://www.w3.org/1999/xlink">
    <!-- Generator: sketchtool 52.3 (67297) - http://www.bohemiancoding.com/sketch -->
    <title>4C2613D5-6B4C-43D8-BEC3-96CC59DA18F0</title>
    <desc>Created with sketchtool.</desc>
    <g id="Tracking" stroke="none" stroke-width="1" fill="none" fill-rule="evenodd">
        <g id="Tracking-A-Thank-you-(6-steps)-non-saved-address" transform="translate(-644.000000, -450.000000)">
            <g id="cart" transform="translate(327.000000, 310.000000)">
                <g id="labels" transform="translate(184.000000, 135.000000)">
                    <g id="Hs-delivery">
                        <g id="icon/hungerstation-delivery" transform="translate(134.000000, 6.000000)">
                            <rect id="Background" x="0" y="0" width="11" height="9"></rect>
                            <g id="Group-5" stroke="#6F6E6B" stroke-linecap="round" stroke-width="1.4">
                                <path d="M3.20857308,2.00378571 L2.68988077,1.5795 L1.14607308,0.317785714 C0.744996154,0.0477857143 0.21065,0.3375 0.211496154,0.824357143 L0.229265385,8.27592857 C0.230534615,8.76278571 0.766573077,9.0555 1.16638077,8.78721429 L5.96365,4.87007143 C6.15530385,4.71321429 6.15488077,4.41621429 5.96195769,4.2585 L4.70711154,3.21278571" id="Stroke-1" stroke-linejoin="round"></path>
                                <path d="M4.70195,7.95732857 L4.70575769,8.27618571 C4.70702692,8.76304286 5.24264231,9.05532857 5.64287308,8.78747143 L10.4401423,4.8699 C10.6322192,4.71347143 10.6313731,4.41604286 10.43845,4.25832857 L5.62256538,0.317614286 C5.22148846,0.0476142857 4.68671923,0.337328571 4.68798846,0.824185714 L4.69179615,3.19461429" id="Stroke-3"></path>
                            </g>
                        </g>
                    </g>
                </g>
            </g>
        </g>
    </g>
</svg>