<?xml version="1.0" encoding="utf-8"?>
<!-- Generator: Adobe Illustrator 19.2.1, SVG Export Plug-In . SVG Version: 6.00 Build 0)  -->
<svg version="1.1" id="Layer_1" xmlns="http://www.w3.org/2000/svg" xmlns:xlink="http://www.w3.org/1999/xlink" x="0px" y="0px"
	 viewBox="0 0 22.5 17" style="enable-background:new 0 0 22.5 17;" xml:space="preserve">
<path d="M19.1,8.2c0-0.1,0.1-0.3,0.1-0.4v0c0.1-1.5-1-2.8-2.5-2.9c0-0.2,0.1-0.4,0.1-0.5v0c0.1-1.5-1-2.8-2.6-2.9
	c-1.3-0.1-2.5,0.8-2.8,2C11,2.2,10,1.4,8.8,1.3C7.3,1.2,6,2.4,5.9,3.9c0,0.3,0,0.6,0.1,0.9C5.3,4.8,4.5,5,4,5.5
	C3.4,6,3.1,6.6,3.1,7.4c0,0.3,0,0.6,0.1,0.8H3.1c-1.4,0-2.5,1.1-2.5,2.5c0,0.8,0.4,1.5,1,2l2.7,2.2c0.5,0.5,1.1,0.7,1.7,0.7h10.1
	c0.7,0,1.3-0.3,1.7-0.7l2.8-2.3c0.6-0.5,1-1.2,1-2C21.5,9.3,20.4,8.2,19.1,8.2z M16.4,6.1c0,0,0.1,0,0.1,0c0.8,0.1,1.4,0.8,1.4,1.6
	c0,0.2-0.1,0.4-0.1,0.5h-2.6C15,8,14.9,7.7,14.9,7.5C15,6.7,15.6,6.1,16.4,6.1z M13.9,2.6c0,0,0.1,0,0.1,0c0.8,0.1,1.4,0.8,1.4,1.6
	c-0.1,0.8-0.8,1.4-1.6,1.4C13,5.5,12.4,4.8,12.5,4C12.5,3.2,13.2,2.6,13.9,2.6z M11,6.1c0,0,0.1,0,0.1,0c0.4,0,0.7,0.2,1,0.5
	c0.3,0.3,0.4,0.7,0.4,1.1v0c0,0.2-0.1,0.4-0.1,0.5H9.7C9.6,8,9.6,7.7,9.6,7.5c0-0.4,0.2-0.7,0.5-1C10.3,6.2,10.7,6.1,11,6.1z
	 M8.6,2.6c0,0,0.1,0,0.1,0c0.8,0.1,1.4,0.8,1.4,1.6C10,5,9.3,5.6,8.5,5.5C7.7,5.5,7.1,4.8,7.2,4C7.2,3.2,7.9,2.6,8.6,2.6z M4.8,6.5
	c0.3-0.2,0.6-0.4,1-0.4c0,0,0.1,0,0.1,0c0.4,0,0.7,0.2,1,0.5c0.3,0.3,0.4,0.7,0.4,1.1v0c0,0.2-0.1,0.4-0.1,0.5H4.5
	C4.4,8,4.3,7.7,4.4,7.5C4.4,7.1,4.6,6.7,4.8,6.5z M19.7,11.6L16.9,14c-0.2,0.2-0.5,0.3-0.8,0.3H6c-0.3,0-0.6-0.1-0.9-0.4l-2.8-2.3
	c-0.2-0.1-0.5-0.5-0.5-0.9c0-0.7,0.5-1.2,1.2-1.2h0.3h0.5h3.9h1.3H13h1.4h3.9h0.4H19c0.7,0,1.2,0.5,1.2,1.2
	C20.2,11.2,19.9,11.5,19.7,11.6z"/>
</svg>
