<svg width="33" height="32" xmlns="http://www.w3.org/2000/svg"><g transform="translate(.666667)" fill-rule="nonzero" fill="none"><circle fill="#C04FBD" cx="16" cy="16" r="16"/><path d="M20.5390492 9h-8.8989047C10.1843735 9 9 10.1843458 9 11.6401168v8.8989047c0 1.4557711 1.1843735 2.6401168 2.6401445 2.6401168h8.8989047c1.4557434 0 2.6400891-1.1843457 2.6400891-2.6401168v-8.8989047C23.1791383 10.1843458 21.9947926 9 20.5390492 9zm-4.44948 10.1746395c-1.7011366 0-3.0850704-1.3839891-3.0850704-3.0850703s1.3839338-3.0850704 3.0850704-3.0850704c1.7011365 0 3.0850703 1.3839615 3.0850703 3.0850704 0 1.7011088-1.3839338 3.0850703-3.0850703 3.0850703zm4.2981343-6.7957675c-.0772375.0772653-.1841349.1215751-.2935524.1215751-.1093899 0-.2165642-.0443098-.2938294-.1215751-.0772653-.0772652-.1215751-.1844395-.1215751-.2938294 0-.1093621.0443098-.2163149.1215751-.2935524.0772652-.0775699.1844395-.121852.2938294-.121852.1091129 0 .2163149.0443098.2935524.121852.0775699.0772375.121852.1841626.121852.2935524 0 .1093899-.0442821.2165642-.121852.2938294z" fill="#FFF"/></g></svg>
