<svg id="Layer_1" data-name="Layer 1" xmlns="http://www.w3.org/2000/svg" viewBox="0 0 15.64 14.74"><title>italian_food</title><path d="M1462.06,142.51a9.53,9.53,0,0,0-6.78-2.81h-0.9a0.6,0.6,0,0,0-.57.41l-4.55,13.54a0.6,0.6,0,0,0,.57.79l0.18,0,14.44-4.55a0.6,0.6,0,0,0,.42-0.57A9.53,9.53,0,0,0,1462.06,142.51Zm-7.46-1,0.21-.63h0.47a8.36,8.36,0,0,1,8.38,8l-0.59.19a7.79,7.79,0,0,0-2.64-5.59,7.7,7.7,0,0,0-5.14-1.95Zm7.27,7.89-11.1,3.5,3.41-10.13A6.6,6.6,0,0,1,1461.87,149.42Z" transform="translate(-1449.22 -139.7)" fill="#000100"/><circle cx="9.29" cy="8.58" r="0.91" fill="#000100"/><circle cx="4.75" cy="10.39" r="0.91" fill="#000100"/><circle cx="6.54" cy="5.27" r="0.91" fill="#000100"/></svg>