<?xml version="1.0" encoding="UTF-8"?>
<svg width="32px" height="32px" viewBox="0 0 32 32" version="1.1" xmlns="http://www.w3.org/2000/svg" xmlns:xlink="http://www.w3.org/1999/xlink">
    <!-- Generator: Sketch 51.3 (57544) - http://www.bohemiancoding.com/sketch -->
    <title>Group 13</title>
    <desc>Created with Sketch.</desc>
    <defs></defs>
    <g id="Restaurant-Page" stroke="none" stroke-width="1" fill="none" fill-rule="evenodd">
        <g id="Restaurant-Detail-A" transform="translate(-849.000000, -352.000000)">
            <g id="restaurant_details-copy" transform="translate(120.000000, 322.000000)">
                <g id="offers-2" transform="translate(600.000000, 22.000000)">
                    <g transform="translate(120.000000, 0.000000)" id="icon">
                        <g transform="translate(9.000000, 8.000000)">
                            <g id="Group-13">
                                <circle id="Oval" fill-opacity="0.37330163" fill="#D8D8D8" opacity="0.5" cx="16" cy="16" r="16"></circle>
                                <g id="icon/card-10%" transform="translate(9.000000, 10.000000)" stroke="#9F9F9F">
                                    <g id="card-favorite" stroke-width="1" fill-rule="evenodd" stroke-linecap="round" stroke-linejoin="round">
                                        <path d="M2.03225806,8.07692308 L5.19354839,8.07692308" id="Shape" stroke-width="1.5"></path>
                                        <path d="M0.225806452,3 L13.7741935,3" id="Shape" stroke-width="1.5"></path>
                                        <path d="M0.225806452,5.30769231 L13.7741935,5.30769231" id="Shape" stroke-width="1.5"></path>
                                        <path d="M6.5483871,10.3846154 L1.12903226,10.3846154 C0.63,10.3846154 0.225806452,9.97153846 0.225806452,9.46153846 L0.225806452,1.15384615 C0.225806452,0.643846154 0.63,0.230769231 1.12903226,0.230769231 L12.8709677,0.230769231 C13.37,0.230769231 13.7741935,0.643846154 13.7741935,1.15384615 L13.7741935,5.30769231" id="Shape" stroke-width="1.5"></path>
                                    </g>
                                    <ellipse id="Oval-2" stroke-width="1.5" cx="9.70967742" cy="8.07692308" rx="1" ry="1"></ellipse>
                                    <ellipse id="Oval-2" stroke-width="1.5" cx="12.8709677" cy="11.3076923" rx="1" ry="1"></ellipse>
                                    <path d="M9.50801726,11.6727764 L13.1653032,7.93511062" id="Path-4" stroke-width="1.5" stroke-linecap="round"></path>
                                </g>
                            </g>
                        </g>
                    </g>
                </g>
            </g>
        </g>
    </g>
</svg>