<svg width="56" height="56" xmlns="http://www.w3.org/2000/svg"><g fill="none" fill-rule="evenodd"><circle fill-opacity=".1264153" fill="#9EDFAD" cx="28" cy="28" r="28"/><g stroke="#7CD8AE" stroke-linecap="round"><path d="M19 35h3M27 35h.733M33.7578947 30.4442H15.9947368M33.2375053 37.9737733h-16.011c-.6806843 0-1.2320527-.4825333-1.2320527-1.0750666V27.21724c0-.5925333.5513684-1.0750667 1.2320527-1.0750667h16.011c.6792631 0 1.2306315.4825334 1.2306315 1.0750667v9.6814667c0 .5925333-.5513684 1.0750666-1.2306315 1.0750666z" stroke-width="1.4" stroke-linejoin="round"/><path d="M37.1606053 28.5478c2.4356842-.5133333 4.2688421-2.7294667 4.2688421-5.3885333 0-3.036-2.3944737-5.5-5.346-5.5-2.9529474 0-5.346 2.464-5.346 5.5" stroke-width="1.5" stroke-linejoin="round"/><path d="M36.0656842 20.81348v3.08M38.1972632 23.8928933h-2.131579" stroke-width="1.5"/></g></g></svg>
