<?xml version="1.0" encoding="utf-8"?>
<!-- Generator: Adobe Illustrator 22.1.0, SVG Export Plug-In . SVG Version: 6.00 Build 0)  -->
<svg version="1.1" id="Layer_1" xmlns="http://www.w3.org/2000/svg" xmlns:xlink="http://www.w3.org/1999/xlink" x="0px" y="0px"
	 viewBox="0 0 61 60.3" style="enable-background:new 0 0 61 60.3;" xml:space="preserve">
<style type="text/css">
	.st0{fill:#FC9287;fill-opacity:0.1044;}
	.st1{fill:none;stroke:#FC9287;stroke-width:1.4;stroke-linecap:round;}
	.st2{fill:none;stroke:#FC9287;stroke-width:1.4;stroke-linecap:round;stroke-linejoin:round;}
	.st3{fill:none;stroke:#FC9287;stroke-width:1.4;}
</style>
<title>icon/pin-red-large</title>
<desc>Created with Sketch.</desc>
<g id="Restaurant-Listing">
	<g id="Restaurants-page-No-Restaurants" transform="translate(-761.000000, -372.000000)">
		<g id="No_Restaurants_found" transform="translate(729.000000, 472.000000)">
			<g id="icon_x2F_no-location" transform="translate(132.000000, 0.000000)">
				<path id="Rectangle-12" class="st0" d="M-69.3-98L-69.3-98c15.5,0,28,12.5,28,28l0,0c0,15.5-12.5,28-28,28l0,0
					c-15.5,0-28-12.5-28-28l0,0C-97.3-85.5-84.8-98-69.3-98z"/>
				<g id="icon_x2F_X-red" transform="translate(24.500000, 20.000000)">
					<g id="x" transform="translate(0.235294, 0.235294)">
						<path id="Path-5" class="st1" d="M-97.1-97.8l7.1,7.1"/>
						<path id="Path-5_1_" class="st2" d="M-90-97.8l-7.1,7.1L-90-97.8z"/>
					</g>
				</g>
				<g id="Group" transform="translate(24.000000, 19.000000)">
				</g>
				<path id="Stroke-1" class="st3" d="M-54.3-74.4c0,10-11.3,21.3-13.9,23.9c-0.3,0.3-0.8,0.3-1.1,0c-2.7-2.5-13.9-13.8-13.9-23.9
					c0-8.1,6.5-14.6,14.5-14.6S-54.3-82.5-54.3-74.4z"/>
			</g>
		</g>
	</g>
</g>
</svg>
