<svg id="Layer_1" data-name="Layer 1" xmlns="http://www.w3.org/2000/svg" viewBox="0 0 16.09 16.09"><title>sandwiches_food</title><path d="M1390.83,306.77l-1.83-1.83,1.14-2.93a1.55,1.55,0,0,0,.05-1.07,1.29,1.29,0,0,0-1.26-.61l-3.71-.48a3.54,3.54,0,0,0,.14-1,3.68,3.68,0,0,0-5.59-3.17l-2.53-2.53a1.25,1.25,0,0,0-2.13.88v13.6a1.25,1.25,0,0,0,1.25,1.25h13.6A1.25,1.25,0,0,0,1390.83,306.77Zm-10-10.27a2.44,2.44,0,0,1,.81-0.14,2.51,2.51,0,0,1,2.5,2.5,2.4,2.4,0,0,1-.18.91Zm4.33,4.54,3.6,0.46h0l0.25,0v0l-1,2.45-1.48-1.48Zm4.38,6.44h-13v-13Z" transform="translate(-1375.1 -292.8)" fill="#000100"/><path d="M1378.16,306.75a0.7,0.7,0,0,0,.49-0.2l3.72-3.62a0.71,0.71,0,0,0,0-1l0,0h0a0.72,0.72,0,0,0-1,0l-3.72,3.62a0.71,0.71,0,0,0-.21.5A0.7,0.7,0,0,0,1378.16,306.75Z" transform="translate(-1375.1 -292.8)" fill="#000100"/><path d="M1378.31,302.63a0.7,0.7,0,0,0,.5-0.21l1.45-1.47a0.71,0.71,0,0,0,0-1,0.72,0.72,0,0,0-1,0l-1.45,1.47a0.7,0.7,0,0,0,0,1A0.71,0.71,0,0,0,1378.31,302.63Z" transform="translate(-1375.1 -292.8)" fill="#000100"/><path d="M1381.5,305.95a0.7,0.7,0,0,0,.7.7,0.71,0.71,0,0,0,.5-0.21l1.45-1.47a0.7,0.7,0,0,0,0-1,0.72,0.72,0,0,0-1,0l-1.45,1.47A0.71,0.71,0,0,0,1381.5,305.95Z" transform="translate(-1375.1 -292.8)" fill="#000100"/></svg>