<svg id="Layer_1" data-name="Layer 1" xmlns="http://www.w3.org/2000/svg" viewBox="0 0 18.2 19.61"><title>turkish_food</title><path d="M1467.12,293.41l-0.54-.48,0.8-.9a0.51,0.51,0,0,0-.77-0.68l-0.8.9-0.6-.53a2.12,2.12,0,0,0-3.06,2.91,2.73,2.73,0,0,0-3,2.89,2.7,2.7,0,0,0,.05.34,2.12,2.12,0,0,0-2.81,3.06h-0.25a2.74,2.74,0,0,0-2,4.38l-0.6.68-0.34.38a0.51,0.51,0,0,0,0,.72,1.54,1.54,0,1,1-2.17.13,0.51,0.51,0,1,0-.77-0.68,2.57,2.57,0,1,0,4,.16l0,0h0l0.59-.66a2.72,2.72,0,0,0,1.44.41h0.17a2.74,2.74,0,0,0,2.58-2.9c0-.09,0-0.17,0-0.25a2.11,2.11,0,0,0,1,.27h0.13a2.1,2.1,0,0,0,1.46-.71,2.13,2.13,0,0,0,.09-2.71l0.18,0h0.16a2.68,2.68,0,0,0,2.52-3.29,2.1,2.1,0,0,0,1.12.32h0.13A2.12,2.12,0,0,0,1467.12,293.41Zm-9.35,10.16a1.44,1.44,0,0,1-1.36,1.53,1.5,1.5,0,0,1-1-.36,1.44,1.44,0,0,1,.87-2.52h0.09a1.45,1.45,0,0,1,1.44,1.36h0Zm2.9-1.64a0.82,0.82,0,0,1-1.16.07l-1.91-1.69a0.82,0.82,0,0,1-.07-1.16,0.83,0.83,0,0,1,1.16-.07l1.91,1.69A0.83,0.83,0,0,1,1460.66,301.93Zm2.33-3.61a1.43,1.43,0,0,1-1,.48,1.44,1.44,0,1,1-.17-2.88h0.09A1.44,1.44,0,0,1,1463,298.32Zm3.33-2.77a0.82,0.82,0,0,1-1.16.07l-1.91-1.69a0.83,0.83,0,0,1-.07-1.16,0.83,0.83,0,0,1,1.16-.07l1.91,1.69A0.83,0.83,0,0,1,1466.33,295.55Z" transform="translate(-1449.64 -291.18)" fill="#000100"/></svg>