<?xml version="1.0" encoding="UTF-8"?>
<svg width="33px" height="32px" viewBox="0 0 33 32" version="1.1" xmlns="http://www.w3.org/2000/svg" xmlns:xlink="http://www.w3.org/1999/xlink">
    <!-- Generator: Sketch 51.1 (57501) - http://www.bohemiancoding.com/sketch -->
    <title>icon/twitter</title>
    <desc>Created with Sketch.</desc>
    <defs>
        <path d="M21.0934132,11.7669993 C21.6263473,11.4183189 22.0353293,10.865336 22.2272455,10.2067864 C21.7281437,10.5303171 21.1769461,10.7644267 20.5886228,10.8911067 C20.1191617,10.3421601 19.4482036,10 18.7056886,10 C17.2811377,10 16.1269461,11.2633843 16.1269461,12.8214238 C16.1269461,13.0428033 16.1482036,13.2582834 16.192515,13.4641384 C14.0491018,13.3461521 12.148503,12.2240408 10.8754491,10.5157241 C10.6532934,10.9339543 10.5263473,11.4183189 10.5263473,11.9349745 C10.5263473,12.9136394 10.9817365,13.7774229 11.6739521,14.2841428 C11.2511976,14.2698603 10.8532934,14.1413174 10.5047904,13.931426 L10.5047904,13.9662009 C10.5047904,15.3335995 11.3934132,16.4743402 12.5751497,16.732668 C12.3580838,16.7988024 12.1308383,16.8320248 11.8946108,16.8320248 C11.7287425,16.8320248 11.5661677,16.8149479 11.4098802,16.7820359 C11.7374251,17.9025948 12.6904192,18.7194943 13.8197605,18.7412287 C12.9362275,19.4985141 11.8239521,19.9490353 10.6155689,19.9490353 C10.407485,19.9490353 10.201497,19.9369261 10,19.910224 C11.1419162,20.7103571 12.4976048,21.1776447 13.9547904,21.1776447 C18.7005988,21.1776447 21.2943114,16.8779774 21.2943114,13.1493014 C21.2943114,13.0266578 21.2928144,12.9046352 21.2877246,12.7844755 C21.7916168,12.3864271 22.2302395,11.889022 22.5748503,11.3229984 C22.111976,11.5474828 21.6146707,11.6993125 21.0934132,11.7669993 L21.0934132,11.7669993 Z" id="path-1"></path>
    </defs>
    <g id="Homepage" stroke="none" stroke-width="1" fill="none" fill-rule="evenodd">
        <g transform="translate(-1261.000000, -2485.000000)" id="footer">
            <g transform="translate(8.000000, 2485.000000)">
                <g id="menu_social_media" transform="translate(112.000000, 0.000000)">
                    <g id="social_media_icons" transform="translate(1040.000000, 0.000000)">
                        <g id="twitter" transform="translate(101.111111, 0.000000)">
                            <g id="icon/twitter">
                                <circle id="Oval-Copy-2" fill="#65BBF2" fill-rule="nonzero" cx="16" cy="16" r="16"></circle>
                                <mask id="mask-2" fill="white">
                                    <use xlink:href="#path-1"></use>
                                </mask>
                                <use id="Mask-Copy" fill="#FFFFFF" fill-rule="evenodd" xlink:href="#path-1"></use>
                            </g>
                        </g>
                    </g>
                </g>
            </g>
        </g>
    </g>
</svg>