<svg width="33" height="32" xmlns="http://www.w3.org/2000/svg" xmlns:xlink="http://www.w3.org/1999/xlink"><defs><path d="M21.0934132 11.7669993c.5329341-.3486804.9419161-.9016633 1.1338323-1.5602129-.4991018.3235307-1.0502994.5576403-1.6386227.6843203C20.1191617 10.3421601 19.4482036 10 18.7056886 10c-1.4245509 0-2.5787425 1.2633843-2.5787425 2.8214238 0 .2213795.0212575.4368596.0655689.6427146-2.1434132-.1179863-4.044012-1.2400976-5.3170659-2.9484143-.2221557.4182302-.3491018.9025948-.3491018 1.4192504 0 .9786649.4553892 1.8424484 1.1476048 2.3491683-.4227545-.0142825-.8206587-.1428254-1.1691617-.3527168v.0347749c0 1.3673986.8886228 2.5081393 2.0703593 2.7664671-.2170659.0661344-.4443114.0993568-.6805389.0993568-.1658683 0-.3284431-.0170769-.4847306-.0499889.3275449 1.1205589 1.280539 1.9374584 2.4098803 1.9591928-.883533.7572854-1.9958084 1.2078066-3.2041916 1.2078066-.2080839 0-.4140719-.0121092-.6155689-.0388113 1.1419162.8001331 2.4976048 1.2674207 3.9547904 1.2674207 4.7458084 0 7.339521-4.2996673 7.339521-8.0283433 0-.1226436-.001497-.2446662-.0065868-.3648259.5038922-.3980484.9425149-.8954535 1.2871257-1.4614771-.4628743.2244844-.9601796.3763141-1.4814371.4440009z" id="a"/></defs><g transform="translate(.111111)" fill="none" fill-rule="evenodd"><circle fill="#65BBF2" fill-rule="nonzero" cx="16" cy="16" r="16"/><use fill="#FFF" xlink:href="#a"/></g></svg>
