<svg width="12" height="11" xmlns="http://www.w3.org/2000/svg" xmlns:xlink="http://www.w3.org/1999/xlink"><defs><path d="M18.2476749 9.7179238c.4982339-.3259772.8805864-.8429545 1.0600065-1.4586247-.4666044.302465-.9819125.5213313-1.5319291.639763-.4388937-.5132037-1.0661645-.8330852-1.760333-.8330852-1.3317959 0-2.410836 1.1811232-2.410836 2.6377159 0 .2069651.0198733.408415.0612995.6008663-2.0038518-.1103039-3.7806992-1.1593526-4.9708624-2.7564378-.2076907.3909985-.3263711.8438253-.3263711 1.3268405 0 .9149423.425738 1.7224834 1.0728822 2.1962098-.3952282-.0133525-.7672241-.1335258-1.0930355-.3297507v.0325106c0 1.2783648.830763 2.3448299 1.9355546 2.5863375-.2029324.0618283-.4153815.0928876-.6362279.0928876-.1550683 0-.3070576-.0159651-.4531689-.0467341.306218 1.0475974 1.1971608 1.8113071 2.2529687 1.8316263-.8260045.7079772-1.8658577 1.1291642-2.995561 1.1291642-.1945352 0-.387111-.0113207-.5754881-.0362842 1.067564.748035 2.3349813 1.1848967 3.697287 1.1848967 4.4368005 0 6.8616319-4.0197084 6.8616319-7.5056038 0-.114658-.0013996-.2287355-.006158-.3410714.4710829-.3721307.8811462-.837149 1.2033188-1.3663177-.4327357.2098678-.8976607.3518115-1.3849782.4150912z" id="a"/></defs><use fill="#4A4A4A" xlink:href="#a" transform="translate(-7.684429 -8)" fill-rule="evenodd"/></svg>
