<?xml version="1.0" encoding="utf-8"?>
<!-- Generator: Adobe Illustrator 22.1.0, SVG Export Plug-In . SVG Version: 6.00 Build 0)  -->
<svg version="1.1" id="Layer_1" xmlns="http://www.w3.org/2000/svg" xmlns:xlink="http://www.w3.org/1999/xlink" x="0px" y="0px"
	 viewBox="0 0 15.3 14.8" style="enable-background:new 0 0 15.3 14.8;" xml:space="preserve">
<style type="text/css">
	.st0{opacity:0.5;}
	.st1{fill:none;stroke:#434340;stroke-width:1.4;stroke-linecap:round;stroke-linejoin:round;}
</style>
<title>icon/work</title>
<desc>Created with Sketch.</desc>
<g id="New-Checkout">
	<g id="Checkout---Add-New-Address-Pop-Up-Save-Address" transform="translate(-436.000000, -424.000000)">
		<g id="Add-New-Address" transform="translate(348.000000, 45.000000)" class="st0">
			<g id="form" transform="translate(26.000000, 339.000000)">
				<g id="Save-address" transform="translate(2.000000, 78.000000)">
					<g id="tags">
						<g id="work" transform="translate(148.000000, 54.000000)">
							<g id="icon_x2F_work" transform="translate(13.000000, 9.000000)">
								<g id="briefcase-24" transform="translate(0.777778, 0.777778)">
									<polyline id="Shape" class="st1" points="-96.1,-97.6 -96.1,-99.9 -92.2,-99.9 -92.2,-97.6 									"/>
									<path id="Shape_1_" class="st1" d="M-99.2-97.6h10.1c0.4,0,0.8,0.3,0.8,0.8v3.9h-11.7v-3.9C-99.9-97.3-99.6-97.6-99.2-97.6
										z"/>
									<path id="Shape_2_" class="st1" d="M-89.1-92.9v3.1c0,0.4-0.3,0.8-0.8,0.8h-8.6c-0.4,0-0.8-0.3-0.8-0.8v-3.1"/>
								</g>
								<path id="Path-8" class="st1" d="M-94.1-94.1h1.6"/>
							</g>
						</g>
					</g>
				</g>
			</g>
		</g>
	</g>
</g>
</svg>
