<?xml version="1.0" encoding="UTF-8"?>
<svg width="1028px" height="284px" viewBox="0 0 1028 284" version="1.1" xmlns="http://www.w3.org/2000/svg" xmlns:xlink="http://www.w3.org/1999/xlink">
    <!-- Generator: sketchtool 52.3 (67297) - http://www.bohemiancoding.com/sketch -->
    <title>9B8456FF-DEB9-4D41-86FD-A0176FB38698@3x</title>
    <desc>Created with sketchtool.</desc>
    <g id="Restaurant-Page" stroke="none" stroke-width="1" fill="none" fill-rule="evenodd" opacity="0.16">
        <g id="Restaurant-Detail-A-default-img" transform="translate(-2.000000, -183.000000)" fill="#434340" fill-rule="nonzero">
            <g id="photo" transform="translate(-2.000000, 152.000000)">
                <g id="bg-pattern" transform="translate(0.000000, -176.000000)">
                    <path d="M882.288947,441.998379 L878.675389,438.436729 C877.497174,437.069723 876.846842,435.313328 876.846842,433.498938 L876.846842,428.030915 C876.846842,415.020025 884.644472,402.899042 885.381465,401.782484 C885.853739,400.964187 886.729161,400.414636 887.731053,400.414636 C889.233848,400.414636 890.452105,401.651059 890.452105,403.176264 L890.452105,468.074519 C890.452105,470.361147 888.623558,472.216961 886.370526,472.216961 C884.117495,472.216961 882.288947,470.361147 882.288947,468.074519 L882.288947,441.998379 Z M860.757258,401.64356 C861.415753,405.145304 863.241579,415.222485 863.241579,419.746031 C863.241579,430.792543 855.078421,433.554171 855.078421,433.554171 L855.078421,468.074519 C855.078421,470.361147 853.249874,472.216961 850.996842,472.216961 C848.74381,472.216961 846.915263,470.361147 846.915263,468.074519 L846.915263,433.554171 C846.915263,433.554171 838.752105,430.792543 838.752105,419.746031 C838.752105,415.222485 840.577931,405.145304 841.236426,401.64356 C841.372479,400.928299 841.987437,400.414636 842.703074,400.414636 C843.527553,400.414636 844.19421,401.091235 844.19421,401.928008 L844.19421,417.964781 C844.19421,418.947921 844.980595,419.746031 845.949289,419.746031 C846.844516,419.746031 847.595526,419.063909 847.693484,418.163618 L849.489379,401.76231 C849.573731,400.994578 850.210458,400.414636 850.972353,400.414636 L850.996842,400.414636 L851.021331,400.414636 C851.783226,400.414636 852.419953,400.994578 852.504305,401.759549 L854.3002,418.160857 C854.398158,419.063909 855.149168,419.746031 856.044395,419.746031 C857.013089,419.746031 857.799474,418.947921 857.799474,417.964781 L857.799474,401.928008 C857.799474,401.091235 858.466131,400.414636 859.29061,400.414636 C860.006247,400.414636 860.621205,400.928299 860.757258,401.64356 Z" id="Combined-Shape" opacity="0.72" transform="translate(864.602105, 436.315799) scale(-1, -1) rotate(-82.000000) translate(-864.602105, -436.315799) "></path>
                    <path d="M667.902361,453.062577 L664.08805,449.215994 C662.844378,447.739628 662.157917,445.842721 662.157917,443.88318 L662.157917,437.977715 C662.157917,423.925954 670.388748,410.835293 671.166685,409.62941 C671.665196,408.745649 672.589253,408.152134 673.646805,408.152134 C675.23309,408.152134 676.519028,409.487471 676.519028,411.134692 L676.519028,481.224808 C676.519028,483.694366 674.588894,485.698645 672.210694,485.698645 C669.832494,485.698645 667.902361,483.694366 667.902361,481.224808 L667.902361,453.062577 Z M645.174467,409.479372 C645.869544,413.261256 647.796805,424.144611 647.796805,429.030041 C647.796805,440.960273 639.180139,443.942832 639.180139,443.942832 L639.180139,481.224808 C639.180139,483.694366 637.250005,485.698645 634.871805,485.698645 C632.493605,485.698645 630.563472,483.694366 630.563472,481.224808 L630.563472,443.942832 C630.563472,443.942832 621.946805,440.960273 621.946805,429.030041 C621.946805,424.144611 623.874067,413.261256 624.569144,409.479372 C624.712755,408.70689 625.361878,408.152134 626.117272,408.152134 C626.987555,408.152134 627.69125,408.882861 627.69125,409.786576 L627.69125,427.106291 C627.69125,428.168082 628.521322,429.030041 629.543833,429.030041 C630.488794,429.030041 631.281528,428.293349 631.384928,427.321035 L633.280594,409.607622 C633.369633,408.778471 634.041733,408.152134 634.845955,408.152134 L634.871805,408.152134 L634.897655,408.152134 C635.701878,408.152134 636.373978,408.778471 636.463017,409.60464 L638.358683,427.318052 C638.462083,428.293349 639.254817,429.030041 640.199778,429.030041 C641.222289,429.030041 642.052361,428.168082 642.052361,427.106291 L642.052361,409.786576 C642.052361,408.882861 642.756055,408.152134 643.626339,408.152134 C644.381733,408.152134 645.030855,408.70689 645.174467,409.479372 Z" id="Combined-Shape" opacity="0.9" transform="translate(649.232917, 446.925390) rotate(-309.000000) translate(-649.232917, -446.925390) "></path>
                    <path d="M68.4388849,431.603228 L64.2230674,427.61418 C62.8484823,426.083133 62.0897621,424.115971 62.0897621,422.083854 L62.0897621,415.959668 C62.0897621,401.387472 71.1869966,387.811971 72.0468218,386.561426 C72.5978081,385.644933 73.6191345,385.029436 74.7880078,385.029436 C76.5412696,385.029436 77.9625692,386.414229 77.9625692,388.122459 L77.9625692,460.808506 C77.9625692,463.369529 75.8292639,465.44804 73.200727,465.44804 C70.5721902,465.44804 68.4388849,463.369529 68.4388849,460.808506 L68.4388849,431.603228 Z M43.3185806,386.405831 C44.0868244,390.327785 46.2169551,401.614227 46.2169551,406.680599 C46.2169551,419.052692 36.6932709,422.145715 36.6932709,422.145715 L36.6932709,460.808506 C36.6932709,463.369529 34.5599656,465.44804 31.9314288,465.44804 C29.302892,465.44804 27.1695867,463.369529 27.1695867,460.808506 L27.1695867,422.145715 C27.1695867,422.145715 17.6459025,419.052692 17.6459025,406.680599 C17.6459025,401.614227 19.7760332,390.327785 20.544277,386.405831 C20.7030051,385.604738 21.420456,385.029436 22.2553656,385.029436 C23.2172578,385.029436 23.9950253,385.787227 23.9950253,386.724413 L23.9950253,404.685599 C23.9950253,405.786715 24.9124735,406.680599 26.0426174,406.680599 C27.0870481,406.680599 27.963227,405.916622 28.0775113,404.908296 L30.1727218,386.538831 C30.2711332,385.678971 31.0139806,385.029436 31.9028578,385.029436 L31.9314288,385.029436 L31.9599999,385.029436 C32.848877,385.029436 33.5917244,385.678971 33.6901358,386.535738 L35.7853463,404.905203 C35.8996306,405.916622 36.7758095,406.680599 37.8202402,406.680599 C38.9503841,406.680599 39.8678323,405.786715 39.8678323,404.685599 L39.8678323,386.724413 C39.8678323,385.787227 40.6455999,385.029436 41.607492,385.029436 C42.4424016,385.029436 43.1598525,385.604738 43.3185806,386.405831 Z" id="Combined-Shape" opacity="0.72" transform="translate(47.804236, 425.238738) scale(1, -1) rotate(-286.000000) translate(-47.804236, -425.238738) "></path>
                    <path d="M995.495295,255.894357 L1019.65575,255.894357 L1019.65575,260.489706 C1019.65575,261.758022 1018.67176,262.78738 1017.45935,262.78738 L997.6917,262.78738 C996.479284,262.78738 995.495295,261.758022 995.495295,260.489706 L995.495295,255.894357 Z M1019.65575,221.429241 C1023.04261,221.429241 1026.24497,224.77925 1026.24497,228.322264 C1026.24497,232.595938 1023.44016,236.198692 1019.65575,237.223455 L1019.65575,253.596682 L1015.26294,253.596682 L1015.26294,246.703659 L1013.06654,246.703659 L1013.06654,253.596682 L1008.67373,253.596682 L1008.67373,242.10831 L1006.47732,242.10831 L1006.47732,253.596682 L1002.08451,253.596682 L1002.08451,246.703659 L999.888105,246.703659 L999.888105,253.596682 L995.495295,253.596682 L995.495295,237.223455 C991.710888,236.198692 988.906079,232.595938 988.906079,228.322264 C988.906079,224.77925 992.108438,221.429241 995.495295,221.429241 C996.861459,221.429241 997.983822,221.760106 998.908508,222.233427 C1000.69858,218.727176 1003.69667,216.833892 1007.57552,216.833892 C1011.45438,216.833892 1014.45247,218.727176 1016.24473,222.235724 C1017.29242,221.691176 1018.41698,221.429241 1019.65575,221.429241 Z" id="Combined-Shape" opacity="0.89" transform="translate(1007.575523, 239.810636) scale(1, -1) rotate(-86.000000) translate(-1007.575523, -239.810636) "></path>
                    <path d="M320.407072,264.652672 L357.577006,264.652672 L357.577006,271.258486 C357.577006,273.081691 356.063176,274.561393 354.197921,274.561393 L323.786157,274.561393 C321.920902,274.561393 320.407072,273.081691 320.407072,271.258486 L320.407072,264.652672 Z M357.577006,215.109068 C362.787555,215.109068 367.714261,219.924706 367.714261,225.017788 C367.714261,231.161195 363.39917,236.340154 357.577006,237.81325 L357.577006,261.349765 L350.818836,261.349765 L350.818836,251.441044 L347.439751,251.441044 L347.439751,261.349765 L340.681581,261.349765 L340.681581,244.83523 L337.302496,244.83523 L337.302496,261.349765 L330.544327,261.349765 L330.544327,251.441044 L327.165242,251.441044 L327.165242,261.349765 L320.407072,261.349765 L320.407072,237.81325 C314.584908,236.340154 310.269817,231.161195 310.269817,225.017788 C310.269817,219.924706 315.196523,215.109068 320.407072,215.109068 C322.508863,215.109068 324.235575,215.584686 325.65817,216.265085 C328.412124,211.224849 333.024575,208.503254 338.992039,208.503254 C344.959503,208.503254 349.571954,211.224849 352.329287,216.268388 C353.941111,215.485599 355.671202,215.109068 357.577006,215.109068 Z" id="Combined-Shape" opacity="0.82" transform="translate(338.992039, 241.532323) rotate(-63.000000) translate(-338.992039, -241.532323) "></path>
                    <path d="M105.256106,249.442958 L127.558067,249.442958 L127.558067,253.751097 C127.558067,254.940144 126.649769,255.905167 125.530616,255.905167 L107.283557,255.905167 C106.164404,255.905167 105.256106,254.940144 105.256106,253.751097 L105.256106,249.442958 Z M127.558067,217.131911 C130.684396,217.131911 133.64042,220.272545 133.64042,223.594121 C133.64042,227.60069 131.051365,230.978272 127.558067,231.938987 L127.558067,247.288888 L123.503165,247.288888 L123.503165,240.826679 L121.475714,240.826679 L121.475714,247.288888 L117.420812,247.288888 L117.420812,236.518539 L115.393361,236.518539 L115.393361,247.288888 L111.338459,247.288888 L111.338459,240.826679 L109.311008,240.826679 L109.311008,247.288888 L105.256106,247.288888 L105.256106,231.938987 C101.762808,230.978272 99.1737533,227.60069 99.1737533,223.594121 C99.1737533,220.272545 102.129777,217.131911 105.256106,217.131911 C106.517181,217.131911 107.553208,217.442097 108.406765,217.885836 C110.059138,214.598725 112.826608,212.823772 116.407087,212.823772 C119.987565,212.823772 122.755036,214.598725 124.409436,217.88799 C125.37653,217.377475 126.414585,217.131911 127.558067,217.131911 Z" id="Combined-Shape" opacity="0.92" transform="translate(116.407087, 234.364469) scale(-1, -1) rotate(-173.000000) translate(-116.407087, -234.364469) "></path>
                    <path d="M762.759368,325.314523 L737.265619,325.314523 C733.307478,325.314523 729.946179,322.469634 729.2595,318.545311 C723.919685,315.871822 719.242148,312.129665 715.730564,307.721758 C711.510673,302.424691 708.975107,296.215677 708.397953,289.765779 C708.192906,287.473119 708.957638,285.184374 710.496253,283.486583 C712.031678,281.792148 714.217875,280.820364 716.494325,280.820364 L783.530523,280.820364 C785.806974,280.820364 787.993032,281.792148 789.528596,283.486583 C791.06721,285.184374 791.831942,287.472979 791.626895,289.765779 C791.050019,296.215397 788.514591,302.424411 784.294562,307.721758 C780.783255,312.129386 776.105579,315.871543 770.765487,318.545311 C770.078947,322.469634 766.717647,325.314523 762.759368,325.314523 Z M717.37288,299.126834 C720.691201,305.518293 726.548278,310.77943 733.877839,313.948387 C734.689431,314.299297 735.213763,315.097443 735.213763,315.981849 L735.213763,317.116365 C735.213763,318.257313 736.134187,319.185477 737.265619,319.185477 L762.759368,319.185477 C763.8908,319.185477 764.811362,318.257313 764.811362,317.116365 L764.811362,315.981849 C764.811362,315.097443 765.335695,314.299297 766.147148,313.948387 C773.47657,310.77943 779.333647,305.518293 782.652246,299.126834 L717.37288,299.126834 Z M715.073554,292.997788 L784.951572,292.997788 C785.251448,291.751288 785.460792,290.478924 785.573506,289.215228 C785.625773,288.632661 785.431955,288.051771 785.042242,287.621452 C784.649616,287.188057 784.112806,286.94955 783.5308,286.94955 L716.494325,286.94955 C715.912319,286.94955 715.375509,287.188197 714.982884,287.621452 C714.593032,288.051771 714.399214,288.632661 714.451343,289.215228 C714.564472,290.479623 714.773817,291.751847 715.073554,292.997788 Z M732.244673,274.99875 L730.48895,274.99875 C729.524439,274.99875 728.662521,274.35383 728.392869,273.430419 C728.227888,272.865887 727.947838,272.107305 727.550915,271.698935 C727.391896,271.535364 726.908324,271.038078 725.531639,271.038078 C720.808351,271.038078 718.077858,268.694529 716.618962,266.728732 C715.133862,264.727426 714.235066,262.038139 714.214963,259.535213 C714.208309,258.703374 714.540071,257.885096 715.125128,257.290366 C715.699786,256.706121 716.455922,256.38443 717.254344,256.38443 L717.269455,256.38443 C718.936449,256.393098 720.292615,257.767799 720.292615,259.448953 C720.292615,260.371945 720.604968,261.870513 721.485186,263.056618 C722.410324,264.303118 723.733909,264.909032 725.531501,264.909032 C728.820154,264.909032 730.835409,266.299671 731.946876,267.466343 C733.063751,268.638327 733.87978,270.252794 734.372641,272.264586 C734.53471,272.926003 734.388446,273.613423 733.971281,274.150554 C733.552869,274.689641 732.923449,274.99875 732.244673,274.99875 Z M753.193563,274.99875 L751.43784,274.99875 C750.473468,274.99875 749.61155,274.35383 749.34162,273.430419 C749.17664,272.866027 748.896728,272.107445 748.499666,271.698935 C748.340786,271.535504 747.857352,271.038078 746.480391,271.038078 C741.757518,271.038078 739.026887,268.694529 737.567851,266.728732 C736.082752,264.727426 735.183956,262.038139 735.163853,259.535213 C735.157198,258.703374 735.488961,257.885096 736.074017,257.290226 C736.648676,256.705981 737.404812,256.38429 738.203095,256.38429 L738.218206,256.38429 C739.8852,256.392958 741.241366,257.76766 741.241366,259.448813 C741.241366,260.371665 741.553719,261.870234 742.433938,263.056478 C743.359075,264.302978 744.68266,264.908892 746.480252,264.908892 C749.768766,264.908892 751.78416,266.299532 752.895628,267.466203 C754.012503,268.638187 754.828392,270.252514 755.321254,272.264446 C755.483322,272.925723 755.337058,273.613144 754.920033,274.150274 C754.501621,274.689641 753.872339,274.99875 753.193563,274.99875 Z" id="Combined-Shape" opacity="0.83" transform="translate(750.012424, 290.849407) scale(1, -1) rotate(-348.000000) translate(-750.012424, -290.849407) "></path>
                    <path d="M532.526091,405.727605 L509.669626,405.727605 C506.120949,405.727605 503.10737,403.238327 502.491727,399.804545 C497.704306,397.465242 493.510652,394.190855 490.362335,390.333936 C486.578985,385.699002 484.305719,380.266115 483.788271,374.622454 C483.604436,372.616377 484.290057,370.613725 485.669505,369.128158 C487.046093,367.645527 489.006131,366.795217 491.047087,366.795217 L551.148506,366.795217 C553.189462,366.795217 555.149376,367.645527 556.526088,369.128158 C557.905536,370.613725 558.591158,372.616255 558.407322,374.622454 C557.890123,380.26587 555.616981,385.698758 551.833506,390.333936 C548.685438,394.19061 544.49166,397.464998 539.70399,399.804545 C539.088472,403.238327 536.074893,405.727605 532.526091,405.727605 Z M491.834757,382.813377 C494.809804,388.405904 500.060976,393.009399 506.632306,395.782236 C507.35994,396.089283 507.830031,396.787661 507.830031,397.561515 L507.830031,398.554217 C507.830031,399.552547 508.655239,400.36469 509.669626,400.36469 L532.526091,400.36469 C533.540479,400.36469 534.36581,399.552547 534.36581,398.554217 L534.36581,397.561515 C534.36581,396.787661 534.835901,396.089283 535.563411,395.782236 C542.134617,393.009399 547.385789,388.405904 550.361085,382.813377 L491.834757,382.813377 Z M489.773292,377.450462 L552.422549,377.450462 C552.691404,376.359775 552.879092,375.246456 552.980145,374.140722 C553.027005,373.630976 552.853238,373.122698 552.50384,372.746168 C552.151831,372.366948 551.670553,372.158254 551.148755,372.158254 L491.047087,372.158254 C490.525289,372.158254 490.044011,372.36707 489.692002,372.746168 C489.342479,373.122698 489.168712,373.630976 489.215448,374.140722 C489.316874,375.247068 489.504562,376.360264 489.773292,377.450462 Z M505.168088,361.701304 L503.593992,361.701304 C502.729258,361.701304 501.956504,361.136999 501.714747,360.329014 C501.566833,359.835049 501.315754,359.17129 500.959892,358.813966 C500.817323,358.670841 500.383775,358.235716 499.149507,358.235716 C494.914835,358.235716 492.466807,356.18511 491.15883,354.465039 C489.827361,352.713895 489.021544,350.36077 489.003521,348.170709 C488.997555,347.44285 489.294998,346.726856 489.819531,346.206468 C490.334741,345.695254 491.012657,345.413774 491.728483,345.413774 L491.742031,345.413774 C493.236577,345.421359 494.45245,346.624222 494.45245,348.095232 C494.45245,348.902849 494.732491,350.214097 495.521652,351.251938 C496.351086,352.342626 497.537748,352.872801 499.149382,352.872801 C502.09783,352.872801 503.90461,354.08961 504.901099,355.110448 C505.902435,356.135934 506.634046,357.548592 507.075922,359.30891 C507.221225,359.88765 507.090092,360.489143 506.716082,360.959132 C506.340954,361.430834 505.776646,361.701304 505.168088,361.701304 Z M523.949852,361.701304 L522.375755,361.701304 C521.511146,361.701304 520.738392,361.136999 520.496386,360.329014 C520.348472,359.835171 520.097517,359.171412 519.741531,358.813966 C519.599086,358.670963 519.165663,358.235716 517.931146,358.235716 C513.696847,358.235716 511.248694,356.18511 509.940593,354.465039 C508.609125,352.713895 507.803308,350.36077 507.785285,348.170709 C507.779318,347.44285 508.076761,346.726856 508.601294,346.206345 C509.116505,345.695131 509.79442,345.413652 510.510122,345.413652 L510.52367,345.413652 C512.018217,345.421236 513.234089,346.6241 513.234089,348.095109 C513.234089,348.902605 513.51413,350.213852 514.303291,351.251816 C515.132725,352.342504 516.319387,352.872679 517.931021,352.872679 C520.879345,352.872679 522.686249,354.089488 523.682738,355.110325 C524.684074,356.135812 525.415561,357.548348 525.857437,359.308788 C526.00274,359.887406 525.871607,360.488898 525.497721,360.958888 C525.122593,361.430834 524.558409,361.701304 523.949852,361.701304 Z" id="Combined-Shape" opacity="0.92" transform="translate(521.097797, 375.570629) scale(-1, 1) rotate(-227.000000) translate(-521.097797, -375.570629) "></path>
                </g>
            </g>
        </g>
    </g>
</svg>