<?xml version="1.0" encoding="UTF-8"?>
<svg width="117px" height="88px" viewBox="0 0 117 88" version="1.1" xmlns="http://www.w3.org/2000/svg" xmlns:xlink="http://www.w3.org/1999/xlink">
    <!-- Generator: sketchtool 52.3 (67297) - http://www.bohemiancoding.com/sketch -->
    <title>87C3455B-ADBB-454E-9365-30C7DAC63DC9@3x</title>
    <desc>Created with sketchtool.</desc>
    <g id="Restaurant-Page" stroke="none" stroke-width="1" fill="none" fill-rule="evenodd">
        <g id="Restaurant-Detail-A-default-img" transform="translate(-306.000000, -608.000000)" fill-rule="nonzero">
            <g id="Items" transform="translate(303.000000, 594.000000)">
                <g id="Group-5">
                    <g id="iteam_1">
                        <g id="Group-2-Copy" transform="translate(0.000000, 5.000000)">
                            <g id="Bitmap">
                                <g id="smallimgpattern" transform="translate(-152.000000, -66.000000)">
                                    <g id="Group-4" opacity="0.75" transform="translate(160.000000, 75.000000)" stroke="#9F9F9F" stroke-dasharray="1,17">
                                        <path d="M4.203125,0.501953125 C3.11979167,2.42122396 0.273083151,4.16339859 0.953125,6.25976563 C1.23334315,7.12359496 6.24866345,13.8742173 8.2109375,15.5488281 C8.8246324,16.0725573 10.4305405,13.5531657 10.3144531,14.3515625 C9.1167151,22.5890669 7.47172843,19.1906469 13.2988281,24.4960937 C13.8618513,25.008714 13.1448797,27.3535064 13.6191406,26.7578125 C15.5374702,24.3483009 17.0845679,21.5593961 17.9824219,18.6132812 C18.8621514,15.7266379 16.5376771,11.5433736 18.8476563,9.6015625 C21.2400519,7.59047058 25.1189279,10.439916 28.2148438,10.0117188 C60.057825,5.60750393 20.3643411,2.70291382 65.6386719,13.8339844 C67.8286628,14.3724119 70.9187176,12.1372172 72.4042969,13.8339844 L74.6796875,8.92382813 C76.9369294,11.5019563 75.5428116,15.8442068 77.0292969,18.9316406 C78.1449326,21.2488189 80.8726592,22.4438189 82.2382813,24.6230469 C83.9345294,27.3298803 84.0504477,30.9410576 86.09375,33.3964844 C89.8484893,37.9085371 94.208914,28.6095949 94.875,28.2890625 C101.257923,25.2174866 102.912204,47.5550001 102.935547,47.8007813 C103.007567,48.5590876 103.69184,49.9951824 102.935547,50.0859375 C93.9435211,51.1649806 72.3514681,32.4061437 67.6640625,36.0175781 C63.8903353,38.9250646 67.2322489,45.715566 65.4628906,50.1386719 C64.9878581,51.3261754 62.8935252,51.3867296 61.7050781,50.9140625 C54.450924,48.0289529 48.3089911,42.5065276 40.8105469,40.3339844 C27.5220467,36.4838736 46.6602026,48.8815265 36.6894531,44.6523438 C33.9913506,43.5079194 31.9830779,40.8586222 29.140625,40.1445313 C21.4426281,38.2106136 13.4330545,35.820687 5.56054688,36.8320313 C3.07048892,37.1519173 11.2990457,40.1730396 10.4707031,42.5429688 L10.2167969,47.8886719 C9.00762716,51.3481663 4.96938188,54.0057205 5.18554688,57.6640625 C5.42017444,61.6348622 9.58863976,64.3103535 11.3964844,67.8535156 C11.8232717,68.6899684 12.0448188,69.7322903 11.8066406,70.640625 C11.3590443,72.3476129 9.71365639,73.628084 9.42578125,75.3691406 C9.30018152,76.1287624 9.97346457,77.057177 10.7070313,77.2910156 L21.3085938,76.9648438 C26.8592292,78.7342163 31.0672593,83.5435479 36.5449219,85.5273438 C40.5109625,86.9636891 44.8940982,87.1881463 49.109375,87.0332031 C62.5452935,86.539332 62.1117861,73.1083891 66.4960938,73.3769531 C69.9338671,73.5875365 72.9380103,75.9323854 76.3222656,76.5722656 C90.5762021,79.2673376 81.8601924,78.2336959 88.5703125,73.1269531 C102.455117,62.5599102 90.558833,65.158388 90.0839844,45.6015625 C89.8891399,37.5768157 102.68822,14.5449581 99.1914063,13.0097656 C90.5078101,9.19744012 80.573494,8.27060415 71.09375,8.54101563 C18.0384499,10.054428 45.2421736,21.2655619 38.9648438,55.2441406 C38.7021494,56.6660799 36.7703259,57.259851 35.3964844,57.7109375 C26.2758769,60.7055939 16.7151391,62.2859443 7.67578125,65.5175781 C6.32586644,66.0001821 3.62068942,67.7823945 4.74804688,68.6679688 C9.78611189,72.6255252 41.4503244,78.1726915 48.0761719,76.8085938 C50.9867321,76.2093816 54.8003088,65.6603933 62.3574219,67.7226562 C110.958724,80.9854805 80.7007104,79.4740372 99.1484375,80.0703125" id="Path-2"></path>
                                    </g>
                                    <g id="Group-3" opacity="0.5" fill="#434340">
                                        <path d="M231.53854,148.746484 L230.21054,147.407188 C229.77754,146.89315 229.53854,146.232688 229.53854,145.550419 L229.53854,143.494265 C229.53854,138.601749 232.404206,134.043867 232.675055,133.624005 C232.848618,133.316299 233.17034,133.10965 233.53854,133.10965 C234.090824,133.10965 234.53854,133.574585 234.53854,134.148111 L234.53854,158.551958 C234.53854,159.411804 233.86654,160.10965 233.03854,160.10965 C232.21054,160.10965 231.53854,159.411804 231.53854,158.551958 L231.53854,148.746484 Z M223.62554,133.571765 C223.86754,134.888534 224.53854,138.677881 224.53854,140.378881 C224.53854,144.532727 221.53854,145.571188 221.53854,145.571188 L221.53854,158.551958 C221.53854,159.411804 220.86654,160.10965 220.03854,160.10965 C219.21054,160.10965 218.53854,159.411804 218.53854,158.551958 L218.53854,145.571188 C218.53854,145.571188 215.53854,144.532727 215.53854,140.378881 C215.53854,138.677881 216.20954,134.888534 216.45154,133.571765 C216.50154,133.302804 216.72754,133.10965 216.99054,133.10965 C217.29354,133.10965 217.53854,133.364073 217.53854,133.678727 L217.53854,139.709073 C217.53854,140.078765 217.82754,140.378881 218.18354,140.378881 C218.51254,140.378881 218.78854,140.122381 218.82454,139.783842 L219.48454,133.616419 C219.51554,133.327727 219.74954,133.10965 220.02954,133.10965 L220.03854,133.10965 L220.04754,133.10965 C220.32754,133.10965 220.56154,133.327727 220.59254,133.615381 L221.25254,139.782804 C221.28854,140.122381 221.56454,140.378881 221.89354,140.378881 C222.24954,140.378881 222.53854,140.078765 222.53854,139.709073 L222.53854,133.678727 C222.53854,133.364073 222.78354,133.10965 223.08654,133.10965 C223.34954,133.10965 223.57554,133.302804 223.62554,133.571765 Z" id="Combined-Shape" opacity="0.9" transform="translate(225.038540, 146.609650) rotate(-309.000000) translate(-225.038540, -146.609650) "></path>
                                        <path d="M198.315892,111.180956 L211.257068,111.180956 L211.257068,113.480956 C211.257068,114.115756 210.730009,114.630956 210.080598,114.630956 L199.492362,114.630956 C198.842951,114.630956 198.315892,114.115756 198.315892,113.480956 L198.315892,111.180956 Z M211.257068,93.930956 C213.071186,93.930956 214.78648,95.607656 214.78648,97.380956 C214.78648,99.519956 213.284127,101.323156 211.257068,101.836056 L211.257068,110.030956 L208.904127,110.030956 L208.904127,106.580956 L207.727656,106.580956 L207.727656,110.030956 L205.374715,110.030956 L205.374715,104.280956 L204.198245,104.280956 L204.198245,110.030956 L201.845304,110.030956 L201.845304,106.580956 L200.668833,106.580956 L200.668833,110.030956 L198.315892,110.030956 L198.315892,101.836056 C196.288833,101.323156 194.78648,99.519956 194.78648,97.380956 C194.78648,95.607656 196.501774,93.930956 198.315892,93.930956 C199.047656,93.930956 199.648833,94.096556 200.144127,94.333456 C201.102951,92.578556 202.708833,91.630956 204.78648,91.630956 C206.864127,91.630956 208.470009,92.578556 209.430009,94.334606 C209.991186,94.062056 210.593539,93.930956 211.257068,93.930956 Z" id="Combined-Shape" opacity="0.82" transform="translate(204.786480, 103.130956) rotate(-63.000000) translate(-204.786480, -103.130956) "></path>
                                        <path d="M267.116088,102.752491 L258.240121,102.752491 C256.862045,102.752491 255.691767,101.761962 255.452691,100.395599 C253.593568,99.4647488 251.965025,98.1618116 250.742423,96.6270744 C249.273216,94.7827516 248.390426,92.6209087 248.189483,90.3751953 C248.118094,89.5769412 248.384345,88.78005 248.920032,88.1889165 C249.45461,87.5989513 250.215762,87.2605975 251.008336,87.2605975 L274.347825,87.2605975 C275.140399,87.2605975 275.901503,87.5989513 276.436129,88.1889165 C276.971816,88.78005 277.238067,89.5768925 277.166678,90.3751953 C276.965831,92.6208113 276.08309,94.7826542 274.613834,96.6270744 C273.391329,98.1617142 271.762738,99.4646515 269.903518,100.395599 C269.664491,101.761962 268.494212,102.752491 267.116088,102.752491 Z M251.314216,93.6345098 C252.469531,95.8598762 254.508745,97.6916891 257.060623,98.7950506 C257.343189,98.9172299 257.525742,99.1951269 257.525742,99.5030576 L257.525742,99.8980715 C257.525742,100.295324 257.846199,100.618491 258.240121,100.618491 L267.116088,100.618491 C267.51001,100.618491 267.830515,100.295324 267.830515,99.8980715 L267.830515,99.5030576 C267.830515,99.1951269 268.013068,98.9172299 268.295586,98.7950506 C270.847416,97.6916891 272.88663,95.8598762 274.042042,93.6345098 L251.314216,93.6345098 Z M250.513677,91.5005102 L274.842581,91.5005102 C274.946986,91.0665061 275.019872,90.6234967 275.059115,90.1835053 C275.077312,89.9806682 275.009832,89.7784153 274.874148,89.6285875 C274.737451,89.4776888 274.550554,89.3946458 274.347921,89.3946458 L251.008336,89.3946458 C250.805704,89.3946458 250.618806,89.4777375 250.482109,89.6285875 C250.346377,89.7784153 250.278897,89.9806682 250.297046,90.1835053 C250.336434,90.6237401 250.40932,91.0667008 250.513677,91.5005102 Z M256.492016,85.2336385 L255.880739,85.2336385 C255.544933,85.2336385 255.244845,85.0090915 255.150963,84.6875799 C255.093523,84.4910222 254.99602,84.2269008 254.857826,84.0847153 C254.802461,84.0277632 254.6341,83.8546191 254.15479,83.8546191 C252.510318,83.8546191 251.559663,83.0386466 251.05173,82.3541993 C250.534674,81.657388 250.221747,80.7210373 250.214748,79.8495729 C250.212431,79.5599448 250.327938,79.2750383 250.531633,79.0679664 C250.731707,78.8645452 250.994966,78.7525394 251.272946,78.7525394 L251.278207,78.7525394 C251.858592,78.7555574 252.330758,79.2341983 252.330758,79.8195392 C252.330758,80.1409048 252.439508,80.6626735 252.745967,81.0756492 C253.068065,81.5096533 253.528888,81.7206195 254.154742,81.7206195 C255.299727,81.7206195 256.001363,82.2048096 256.388335,82.6110191 C256.777189,83.0190784 257.061299,83.5812004 257.232895,84.2816624 C257.289321,84.5119533 257.238398,84.7512981 257.093157,84.9383152 C256.947481,85.1260137 256.728341,85.2336385 256.492016,85.2336385 Z M263.785634,85.2336385 L263.174357,85.2336385 C262.838599,85.2336385 262.538511,85.0090915 262.444532,84.6875799 C262.387092,84.4910709 262.289637,84.2269495 262.151395,84.0847153 C262.096079,84.0278119 261.927765,83.8546191 261.448359,83.8546191 C259.804032,83.8546191 258.853329,83.0386466 258.345347,82.3541993 C257.828291,81.657388 257.515364,80.7210373 257.508365,79.8495729 C257.506048,79.5599448 257.621556,79.2750383 257.82525,79.0679177 C258.025325,78.8644965 258.288583,78.7524907 258.566515,78.7524907 L258.571776,78.7524907 C259.152161,78.7555087 259.624327,79.2341496 259.624327,79.8194906 C259.624327,80.1408074 259.733077,80.6625762 260.039536,81.0756005 C260.361634,81.5096047 260.822457,81.7205708 261.448311,81.7205708 C262.593248,81.7205708 263.294932,82.2047609 263.681904,82.6109705 C264.070758,83.0190298 264.35482,83.5811031 264.526416,84.2816138 C264.582842,84.511856 264.531918,84.7512008 264.386726,84.9382178 C264.24105,85.1260137 264.021958,85.2336385 263.785634,85.2336385 Z" id="Combined-Shape" opacity="0.83" transform="translate(262.678081, 90.752491) scale(1, -1) rotate(-348.000000) translate(-262.678081, -90.752491) "></path>
                                        <path d="M174.524096,144.168581 L166.566332,144.168581 C165.330816,144.168581 164.281601,143.301869 164.067257,142.106301 C162.400457,141.291807 160.940384,140.151737 159.844258,138.808842 C158.527038,137.195059 157.735572,135.303447 157.555416,133.338447 C157.491411,132.639975 157.730119,131.942695 158.210391,131.425453 C158.689667,130.909234 159.372079,130.613174 160.082663,130.613174 L181.007722,130.613174 C181.718306,130.613174 182.400675,130.909234 182.879994,131.425453 C183.360266,131.942695 183.598974,132.639932 183.534969,133.338447 C183.3549,135.303361 182.563477,137.194974 181.246213,138.808842 C180.150174,140.151651 178.690058,141.291722 177.023171,142.106301 C176.808871,143.301869 175.759656,144.168581 174.524096,144.168581 Z M160.3569,136.190348 C161.3927,138.137543 163.220961,139.740379 165.508852,140.705821 C165.762187,140.812728 165.925855,141.055888 165.925855,141.325327 L165.925855,141.670964 C165.925855,142.01856 166.213161,142.301331 166.566332,142.301331 L174.524096,142.301331 C174.877268,142.301331 175.164617,142.01856 175.164617,141.670964 L175.164617,141.325327 C175.164617,141.055888 175.328285,140.812728 175.581577,140.705821 C177.869424,139.740379 179.697685,138.137543 180.733571,136.190348 L160.3569,136.190348 Z M159.639176,134.323098 L181.451296,134.323098 C181.544901,133.943344 181.610247,133.555711 181.64543,133.170719 C181.661745,132.993236 181.601246,132.816265 181.479598,132.685166 C181.357042,132.553129 181.189479,132.480467 181.007808,132.480467 L160.082663,132.480467 C159.900992,132.480467 159.73343,132.553172 159.610873,132.685166 C159.489183,132.816265 159.428683,132.993236 159.444955,133.170719 C159.480268,133.555924 159.545614,133.943515 159.639176,134.323098 Z M164.999066,128.839585 L164.451025,128.839585 C164.149957,128.839585 163.880913,128.643107 163.796742,128.361784 C163.745244,128.189796 163.657828,127.95869 163.53393,127.834277 C163.484293,127.784444 163.333348,127.632943 162.903622,127.632943 C161.429268,127.632943 160.576956,126.918967 160.121568,126.320076 C159.658,125.710366 159.377445,124.891059 159.37117,124.128528 C159.369093,123.875103 159.472651,123.62581 159.655274,123.444622 C159.834651,123.266629 160.070676,123.168623 160.3199,123.168623 L160.324617,123.168623 C160.844962,123.171264 161.268283,123.590075 161.268283,124.102248 C161.268283,124.383443 161.365783,124.839991 161.640539,125.201345 C161.929316,125.581098 162.342468,125.765694 162.903578,125.765694 C163.930117,125.765694 164.55917,126.18936 164.90611,126.544793 C165.254738,126.901845 165.509457,127.393702 165.663302,128.006606 C165.713891,128.208111 165.668235,128.417537 165.538019,128.581177 C165.407414,128.745413 165.210943,128.839585 164.999066,128.839585 Z M171.538171,128.839585 L170.99013,128.839585 C170.689105,128.839585 170.420061,128.643107 170.335804,128.361784 C170.284306,128.189839 170.196933,127.958732 170.072992,127.834277 C170.023398,127.784487 169.872496,127.632943 169.442684,127.632943 C167.968459,127.632943 167.116105,126.918967 166.660673,126.320076 C166.197106,125.710366 165.91655,124.891059 165.910275,124.128528 C165.908198,123.875103 166.011757,123.62581 166.194379,123.444579 C166.373756,123.266586 166.609781,123.168581 166.858962,123.168581 L166.863679,123.168581 C167.384023,123.171222 167.807345,123.590032 167.807345,124.102206 C167.807345,124.383358 167.904844,124.839906 168.179601,125.201302 C168.468378,125.581056 168.88153,125.765651 169.44264,125.765651 C170.469136,125.765651 171.098232,126.189317 171.445172,126.544751 C171.7938,126.901803 172.048476,127.393617 172.202321,128.006564 C172.25291,128.208025 172.207254,128.417452 172.077081,128.581092 C171.946476,128.745413 171.750048,128.839585 171.538171,128.839585 Z" id="Combined-Shape" opacity="0.92" transform="translate(170.545193, 133.668581) scale(-1, 1) rotate(-227.000000) translate(-170.545193, -133.668581) "></path>
                                    </g>
                                </g>
                            </g>
                        </g>
                    </g>
                </g>
            </g>
        </g>
    </g>
</svg>