<?xml version="1.0" encoding="UTF-8"?>
<svg width="541px" height="239px" viewBox="0 0 541 239" version="1.1" xmlns="http://www.w3.org/2000/svg" xmlns:xlink="http://www.w3.org/1999/xlink">
    <!-- Generator: Sketch 51.1 (57501) - http://www.bohemiancoding.com/sketch -->
    <title>logo/hungerstation</title>
    <desc>Created with Sketch.</desc>
    <defs>
        <polygon id="path-1" points="0 0.670208438 540.647 0.670208438 540.647 237.9994 0 237.9994"></polygon>
        <polygon id="path-3" points="0 238.33 540.647 238.33 540.647 1 0 1"></polygon>
    </defs>
    <g id="logo/hungerstation" stroke="none" stroke-width="1" fill="none" fill-rule="evenodd">
        <g id="Group-3" transform="translate(0.000000, 0.330000)">
            <mask id="mask-2" fill="white">
                <use xlink:href="#path-1"></use>
            </mask>
            <g id="Clip-2"></g>
            <path d="M539.193,119.4284 C541.356,114.3964 541.104,108.6004 538.403,103.7404 L526.549,82.4214 C528.011,80.6464 529.354,78.7574 530.572,76.7614 C535.082,69.3614 537.369,61.1474 537.369,52.3474 C537.369,38.3224 532.153,25.9784 522.28,16.6474 C512.689,7.5934 500.322,2.8064 486.514,2.8064 L449.804,2.8064 L438.293,2.8064 L379.948,2.8064 C372.787,2.8064 366.63,7.0414 363.799,13.1354 C358.71,9.3974 352.995,6.4064 346.681,4.2294 C336.239,0.6344 325.188,-0.2436 313.825,1.6244 C302.076,3.5594 291.884,7.9904 283.337,14.8174 C280.927,7.8324 274.312,2.8064 266.509,2.8064 L243.173,2.8064 C236.108,2.8064 230.002,6.9214 227.123,12.8854 L225.37,10.3874 C222.035,5.6364 216.594,2.8064 210.788,2.8064 L192.564,2.8064 L178.537,2.8064 L155.066,2.8064 C150.017,2.8064 145.46,4.9074 142.218,8.2814 C138.975,4.9074 134.418,2.8064 129.369,2.8064 L105.9,2.8064 C103.258,2.8064 94.096,3.0684 91.677,3.0684 L68.473,3.0684 C63.428,3.0684 58.874,5.1644 55.632,8.5354 C52.392,5.1644 47.838,3.0684 42.793,3.0684 L19.458,3.0684 C9.621,3.0684 1.644,11.0444 1.644,20.8824 L1.644,112.1344 C1.644,118.9924 5.526,124.9364 11.207,127.9124 C6.42,135.1024 3.932,143.5834 3.932,152.9484 C3.932,165.2684 8.041,173.9344 12.649,179.7784 L8.858,181.9814 C1.416,186.3114 -1.866,195.3454 1.066,203.4424 C4.942,214.1554 11.833,222.7554 21.535,228.9984 C30.802,234.9714 42.164,237.9994 55.3,237.9994 C69.862,237.9994 82.101,234.1414 91.676,226.5304 C94.987,223.9004 97.81,220.9174 100.133,217.6234 L100.133,218.2194 C100.133,228.0574 108.109,236.0324 117.947,236.0324 C117.947,236.0324 149.987,236.2794 152.419,236.2794 L178.249,236.1644 C186.121,236.1644 193.06,230.9974 195.316,223.4554 L196.519,219.6864 L199.239,219.0384 L201.159,222.8814 C203.579,230.1654 210.409,236.0754 218.083,236.0754 L242.016,236.6444 C244.893,236.6444 253.987,236.3654 256.042,236.3654 L279.932,236.0324 C286.769,236.0324 292.7,232.1744 295.686,226.5214 C298.672,232.1744 304.602,236.0324 311.44,236.0324 L334.901,236.0324 C342.839,236.0324 349.558,230.8364 351.86,223.6634 C363.579,233.1774 377.503,237.9994 393.354,237.9994 C408.213,237.9994 421.38,233.7684 432.621,225.4034 C435.383,231.6594 441.633,236.0324 448.913,236.0324 L472.375,236.0324 C479.437,236.0324 485.539,231.9234 488.421,225.9654 L490.165,228.4504 C493.5,233.2024 498.94,236.0324 504.747,236.0324 L522.834,236.0324 C532.671,236.0324 540.647,228.0574 540.647,218.2194 L540.647,126.4724 C540.647,123.9694 540.126,121.5894 539.193,119.4284" id="Fill-1" fill="#FFFFFF" mask="url(#mask-2)"></path>
        </g>
        <path d="M55.2985,220.5172 C45.5995,220.5172 37.5595,218.4652 31.1835,214.3572 C24.8025,210.2502 20.3465,204.7032 17.8145,197.7112 L37.8665,186.0462 C41.2745,194.1722 47.3035,198.2362 55.9535,198.2362 C63.1165,198.2362 66.7005,196.2002 66.7005,192.1292 C66.7005,189.4442 64.6355,187.2792 60.5045,185.6332 C58.7625,184.9122 54.9295,183.6952 49.0085,181.9832 C40.6185,179.5382 33.9785,176.1082 29.0845,171.6942 C24.1905,167.2832 21.7445,161.1432 21.7445,153.2792 C21.7445,144.8052 24.7795,137.9452 30.8555,132.7022 C36.9265,127.4592 44.5065,124.8382 53.5955,124.8382 C61.2815,124.8382 68.0985,126.6302 74.0405,130.2112 C79.9835,133.7952 84.5265,138.9932 87.6715,145.8092 L68.0115,157.3432 C65.1285,150.5272 60.3655,147.1192 53.7265,147.1192 C50.9285,147.1192 48.8115,147.6912 47.3685,148.8332 C45.9275,149.9762 45.2065,151.4242 45.2065,153.1822 C45.2065,155.2032 46.2735,156.9172 48.4105,158.3222 C50.5465,159.7282 54.7105,161.3552 60.9035,163.1972 C65.2685,164.7702 68.8295,166.0522 71.5885,167.0452 C74.3465,168.0402 77.3455,169.6052 80.5815,171.7422 C83.8185,173.8772 86.2235,176.6232 87.7995,179.9802 C89.3735,183.3372 90.1615,187.2812 90.1615,191.8132 C90.1615,200.8142 86.9715,207.8492 80.5955,212.9142 C74.2155,217.9842 65.7835,220.5172 55.2985,220.5172" id="Fill-4" fill="#592913"></path>
        <polygon id="Fill-6" fill="#592913" points="164.0817 126.8043 164.0817 149.4783 141.4067 149.4783 141.4067 218.5513 117.9457 218.5513 117.9457 149.4783 95.2717 149.4783 95.2717 126.8043"></polygon>
        <polygon id="Fill-8" fill="#592913" points="302.6061 126.8043 302.6061 149.4783 279.9321 149.4783 279.9321 218.5513 256.4701 218.5513 256.4701 149.4783 233.7961 149.4783 233.7961 126.8043"></polygon>
        <mask id="mask-4" fill="white">
            <use xlink:href="#path-3"></use>
        </mask>
        <g id="Clip-11"></g>
        <polygon id="Fill-10" fill="#592913" mask="url(#mask-4)" points="311.439 218.551 334.901 218.551 334.901 126.804 311.439 126.804"></polygon>
        <path d="M375.6588,190.568 C380.3778,195.243 386.2748,197.581 393.3528,197.581 C400.4308,197.581 406.3278,195.243 411.0478,190.568 C415.7648,185.895 418.1238,179.931 418.1238,172.677 C418.1238,165.426 415.7648,159.462 411.0478,154.787 C406.3278,150.113 400.4308,147.775 393.3528,147.775 C386.2748,147.775 380.3778,150.113 375.6588,154.787 C370.9408,159.462 368.5808,165.426 368.5808,172.677 C368.5808,179.931 370.9408,185.895 375.6588,190.568 M427.4958,206.69 C418.1898,215.91 406.8068,220.517 393.3528,220.517 C379.8958,220.517 368.5158,215.91 359.2098,206.69 C349.9038,197.472 345.2508,186.134 345.2508,172.677 C345.2508,159.223 349.9038,147.885 359.2098,138.666 C368.5158,129.448 379.8958,124.838 393.3528,124.838 C406.8068,124.838 418.1898,129.448 427.4958,138.666 C436.8018,147.885 441.4548,159.223 441.4548,172.677 C441.4548,186.134 436.8018,197.472 427.4958,206.69" id="Fill-12" fill="#592913" mask="url(#mask-4)"></path>
        <polygon id="Fill-13" fill="#592913" mask="url(#mask-4)" points="499.5036 126.8043 522.8326 126.8043 522.8326 218.5513 504.7456 218.5513 472.3736 172.4153 472.3736 218.5513 448.9116 218.5513 448.9116 126.8043 467.1296 126.8043 499.5036 172.9403"></polygon>
        <path d="M204.2799,177.1739 L189.9859,179.5839 L197.4379,154.2429 L204.2799,177.1739 Z M181.9549,126.8339 L152.4189,219.5229 L178.0729,219.5229 L181.4459,208.2449 L183.3889,201.7369 L210.5599,196.8659 L214.5389,208.9239 L218.0579,219.5229 L242.4599,219.5229 L211.7979,126.8339 L181.9549,126.8339 Z" id="Fill-14" fill="#592913" mask="url(#mask-4)"></path>
        <polygon id="Fill-15" fill="#592913" mask="url(#mask-4)" points="68.4733 55.255 42.7923 59.858 42.7923 52.644 42.7923 21.213 19.4573 21.213 19.4573 112.465 42.7923 112.465 42.7923 80.829 68.4733 76.226 68.4733 79.788 68.4733 112.465 91.6773 112.465 91.6773 21.213 68.4733 21.213"></polygon>
        <path d="M168.3747,105.9102 C161.5997,111.7672 152.8807,114.6952 142.2187,114.6952 C131.5527,114.6952 122.8327,111.7672 116.0617,105.9102 C109.2857,100.0552 105.8987,92.2752 105.8987,82.5732 L105.8987,20.9502 L129.3687,20.9502 L129.3687,80.3442 C129.3687,88.0352 133.6497,91.8812 142.2187,91.8812 C150.7827,91.8812 155.0657,88.0352 155.0657,80.3442 L155.0657,20.9502 L178.5357,20.9502 L178.5357,82.5732 C178.5357,92.2752 175.1467,100.0552 168.3747,105.9102" id="Fill-16" fill="#592913" mask="url(#mask-4)"></path>
        <polygon id="Fill-17" fill="#592913" mask="url(#mask-4)" points="243.1725 20.9503 266.5095 20.9503 266.5095 112.7283 248.4165 112.7283 216.0325 66.5763 216.0325 112.7283 192.5645 112.7283 192.5645 20.9503 210.7875 20.9503 243.1725 67.1013"></polygon>
        <path d="M369.5924,52.5518 L371.1044,61.7378 C373.2914,75.0198 370.9014,86.4648 363.9344,96.0708 C356.9674,105.6778 346.8424,111.5748 333.5614,113.7608 C319.4154,116.0908 307.0494,113.4748 296.4594,105.9168 C285.8674,98.3598 279.4814,87.9398 277.2934,74.6578 C275.1074,61.3778 277.7904,49.4188 285.3404,38.7848 C292.8914,28.1538 303.3494,21.7348 316.7194,19.5338 C325.1714,18.1418 333.2234,18.7658 340.8784,21.4028 C348.5314,24.0418 354.8604,28.1818 359.8644,33.8228 L342.0534,48.3168 C339.7744,45.7678 336.7454,43.9208 332.9684,42.7688 C329.1924,41.6208 325.1044,41.4068 320.7054,42.1308 C313.5444,43.3098 308.0644,46.6038 304.2614,52.0128 C300.4554,57.4238 299.1514,63.7508 300.3434,70.9958 C301.4934,77.9818 304.7304,83.5178 310.0534,87.6008 C315.3764,91.6868 322.1344,93.0528 330.3284,91.7038 C340.8504,89.9718 347.1414,84.8628 349.1974,76.3728 L327.2044,79.9938 L323.9244,60.0708 L369.5924,52.5518 Z" id="Fill-18" fill="#592913" mask="url(#mask-4)"></path>
        <polygon id="Fill-19" fill="#592913" mask="url(#mask-4)" points="403.4167 90.7013 438.9467 90.7013 438.9467 112.7283 379.9477 112.7283 379.9477 20.9503 438.2917 20.9503 438.2917 42.8453 403.4167 42.8453 403.4167 55.5633 435.0147 55.5633 435.0147 77.1973 403.4167 77.1973"></polygon>
        <path d="M473.2731,42.5836 L473.2731,65.3176 L485.8731,63.7396 C488.1541,63.5976 491.4981,62.3386 493.3331,60.4146 C495.1681,58.4926 496.0851,56.0016 496.0851,52.9416 C496.0851,49.8826 495.1681,47.3916 493.3331,45.4686 C491.4981,43.5456 489.1361,42.5836 486.2521,42.5836 L473.2731,42.5836 Z M497.6591,112.7286 L481.6641,83.0966 L473.2731,84.5076 L473.2731,112.7286 L449.8031,112.7286 L449.8031,20.9506 L486.5141,20.9506 C495.8671,20.9506 503.7101,23.9446 510.0491,29.9316 C516.3851,35.9186 519.5551,43.5006 519.5551,52.6786 C519.5551,58.1866 518.1561,63.2336 515.3601,67.8226 C512.5601,72.4116 508.7581,76.0626 503.9531,78.7706 L522.8331,112.7286 L497.6591,112.7286 Z" id="Fill-20" fill="#592913" mask="url(#mask-4)"></path>
    </g>
</svg>