<?xml version="1.0" encoding="utf-8"?>
<!-- Generator: Adobe Illustrator 22.1.0, SVG Export Plug-In . SVG Version: 6.00 Build 0)  -->
<svg version="1.1" id="Layer_1" xmlns="http://www.w3.org/2000/svg" xmlns:xlink="http://www.w3.org/1999/xlink" x="0px" y="0px"
	 viewBox="0 0 72 72" style="enable-background:new 0 0 72 72;" xml:space="preserve">
<style type="text/css">
	.st0{opacity:0.2554;fill:#424242;}
</style>
<title>Oval</title>
<desc>Created with Sketch.</desc>
<g id="Tracking">
	<g id="Tracking-A-Thank-you-_x28_6-steps_x29_-non-saved-address" transform="translate(-960.000000, -347.000000)">
		<g id="Delivery-Time" transform="translate(961.000000, 348.000000)">
			<path class="st0" d="M34,70c0-0.6,0.4-1,1-1l0,0l0,0l0,0c0.5,0,1,0.4,1,1l0,0c0,0.6-0.5,1-1,1v0C34.4,71,34,70.6,34,70z
				 M23.9,69.3c-0.5-0.2-0.8-0.7-0.6-1.3l0,0c0.2-0.5,0.7-0.8,1.3-0.6l0,0c0.5,0.2,0.8,0.7,0.6,1.3l0,0c-0.1,0.4-0.5,0.7-0.9,0.7
				l0,0C24.1,69.3,24,69.3,23.9,69.3z M44.9,68.6c-0.2-0.5,0.1-1.1,0.6-1.3l0,0c0.5-0.2,1.1,0.1,1.3,0.6l0,0
				c0.2,0.5-0.1,1.1-0.6,1.3l0,0c-0.1,0-0.2,0-0.3,0l0,0C45.4,69.3,45,69,44.9,68.6z M13.8,64.1c-0.4-0.3-0.5-1-0.2-1.4l0,0
				c0.3-0.5,1-0.5,1.4-0.2l0,0c0.4,0.3,0.5,0.9,0.2,1.4l0,0c-0.2,0.3-0.5,0.4-0.8,0.4l0,0C14.2,64.3,14,64.3,13.8,64.1z M54.8,63.9
				c-0.3-0.5-0.2-1.1,0.2-1.4l0,0c0.4-0.3,1.1-0.2,1.4,0.2l0,0c0.3,0.4,0.2,1.1-0.2,1.4l0,0c-0.2,0.1-0.4,0.2-0.6,0.2l0,0
				C55.3,64.3,55,64.2,54.8,63.9z M5.9,56.2c-0.3-0.5-0.2-1.1,0.2-1.4l0,0c0.4-0.3,1.1-0.2,1.4,0.2l0,0c0.3,0.5,0.2,1.1-0.2,1.4l0,0
				c-0.2,0.1-0.4,0.2-0.6,0.2l0,0C6.4,56.6,6.1,56.4,5.9,56.2z M62.7,56.4c-0.4-0.3-0.5-1-0.2-1.4l0,0c0.3-0.5,1-0.5,1.4-0.2l0,0
				c0.4,0.3,0.5,0.9,0.2,1.4l0,0c-0.2,0.3-0.5,0.4-0.8,0.4l0,0C63.1,56.6,62.9,56.5,62.7,56.4z M0.8,46.1L0.8,46.1
				c-0.2-0.5,0.1-1.1,0.6-1.3l0,0c0.5-0.2,1.1,0.1,1.3,0.6l0,0C2.8,46,2.5,46.6,2,46.8l0,0c-0.1,0-0.2,0-0.3,0l0,0
				C1.3,46.8,0.9,46.6,0.8,46.1z M68,46.8c-0.5-0.2-0.8-0.7-0.6-1.3l0,0c0.2-0.5,0.7-0.8,1.2-0.6l0,0c0.5,0.2,0.8,0.7,0.7,1.3l0,0
				c-0.1,0.4-0.5,0.7-1,0.7l0,0C68.2,46.8,68.1,46.8,68,46.8z M-1,35c0-0.6,0.4-1,1-1l0,0c0.5,0,1,0.4,1,1l0,0c0,0.5-0.5,1-1,1l0,0
				C-0.6,36-1,35.6-1,35z M69,35c0-0.5,0.5-1,1-1l0,0c0.5,0,1,0.5,1,1l0,0c0,0.6-0.5,1-1,1l0,0C69.5,36,69,35.6,69,35z M1.4,25.1
				c-0.5-0.2-0.8-0.7-0.6-1.3l0,0c0.2-0.5,0.7-0.8,1.3-0.6l0,0c0.5,0.2,0.8,0.7,0.6,1.3l0,0c-0.1,0.4-0.5,0.7-1,0.7l0,0
				C1.6,25.2,1.5,25.2,1.4,25.1z M67.3,24.5c-0.2-0.5,0.1-1.1,0.7-1.3l0,0c0.5-0.2,1.1,0.1,1.3,0.7l0,0c0.2,0.5-0.1,1.1-0.7,1.2l0,0
				c-0.1,0-0.2,0-0.3,0l0,0C67.9,25.2,67.5,24.9,67.3,24.5z M6.1,15.2c-0.5-0.3-0.5-1-0.2-1.4l0,0c0.3-0.5,1-0.5,1.4-0.2l0,0
				c0.4,0.3,0.5,0.9,0.2,1.4l0,0c-0.2,0.3-0.5,0.4-0.8,0.4l0,0C6.5,15.4,6.3,15.4,6.1,15.2z M62.5,15c-0.3-0.4-0.2-1.1,0.2-1.4l0,0
				c0.4-0.3,1.1-0.2,1.4,0.2l0,0c0.3,0.4,0.2,1.1-0.2,1.4l0,0c-0.2,0.1-0.4,0.2-0.6,0.2l0,0C63,15.4,62.7,15.3,62.5,15z M13.6,7.3
				c-0.3-0.5-0.2-1.1,0.2-1.4l0,0c0.5-0.3,1.1-0.2,1.4,0.2l0,0c0.3,0.5,0.2,1.1-0.2,1.4l0,0c-0.2,0.1-0.4,0.2-0.6,0.2l0,0
				C14.1,7.7,13.8,7.5,13.6,7.3z M55,7.5c-0.4-0.3-0.5-1-0.2-1.4l0,0c0.3-0.5,1-0.5,1.4-0.2l0,0c0.4,0.3,0.5,0.9,0.2,1.4l0,0
				c-0.2,0.3-0.5,0.4-0.8,0.4l0,0C55.4,7.7,55.2,7.6,55,7.5z M23.2,2c-0.2-0.5,0.1-1.1,0.6-1.3l0,0c0.5-0.2,1.1,0.1,1.3,0.6l0,0
				c0.2,0.5-0.1,1.1-0.6,1.3l0,0c-0.1,0-0.2,0-0.3,0l0,0C23.8,2.7,23.4,2.4,23.2,2z M45.5,2.7c-0.5-0.2-0.8-0.7-0.6-1.3l0,0
				c0.2-0.5,0.7-0.8,1.3-0.6l0,0c0.5,0.2,0.8,0.7,0.6,1.3l0,0c-0.1,0.4-0.5,0.7-1,0.7l0,0C45.7,2.7,45.6,2.7,45.5,2.7z M34,0
				c0-0.6,0.4-1,1-1l0,0c0.5,0,1,0.5,1,1l0,0c0,0.5-0.5,1-1,1l0,0c0,0,0,0,0,0l0,0C34.4,1,34,0.6,34,0z"/>
		</g>
	</g>
</g>
</svg>
